<?xml version="1.0" encoding="UTF-8" standalone="no"?>
<svg width="1024px" height="1963px" viewBox="0 0 1024 1963" version="1.1" xmlns="http://www.w3.org/2000/svg" xmlns:xlink="http://www.w3.org/1999/xlink" xmlns:sketch="http://www.bohemiancoding.com/sketch/ns">
    <!-- Generator: Sketch 3.3.3 (12072) - http://www.bohemiancoding.com/sketch -->
    <title>Desktop</title>
    <desc>Created with Sketch.</desc>
    <defs></defs>
    <g id="Welcome" stroke="none" stroke-width="1" fill="none" fill-rule="evenodd" sketch:type="MSPage">
        <rect id="Rectangle-76" fill="#A5DBE5" sketch:type="MSShapeGroup" x="0" y="0" width="1024" height="1963"></rect>
        <g id="Desktop" sketch:type="MSArtboardGroup" fill="#FFFFFF">
            <g id="Group" sketch:type="MSLayerGroup" transform="translate(-46.000000, 11.000000)">
                <g id="moln2-copy-3" transform="translate(49.000000, 0.000000)" sketch:type="MSShapeGroup">
                    <path d="M77.8396256,16.2242664 C76.6974615,8.18849365 69.5933308,2 61,2 C56.9508272,2 53.2323,3.37402457 50.3123586,5.66789627 C45.8912176,2.12891017 40.2043732,0 34,0 C20.0187413,0 8.66551845,10.8107059 8.50179338,24.2063995 C3.41949276,27.0590793 0,32.3919521 0,38.5 C0,47.6126984 7.61115925,55 17,55 C19.8706699,55 22.575153,54.3093971 24.9467087,53.0900278 L24.9467087,53.0900278 C29.0256431,59.5923372 36.9245559,64 46,64 C54.0139139,64 61.1104315,60.5631392 65.4694285,55.2820262 C68.2335642,56.3868544 71.2881924,57 74.5,57 C86.9264069,57 97,47.8218374 97,36.5 C97,26.2120822 88.6822559,17.694192 77.8396256,16.2242664 Z" id="Oval-43"></path>
                </g>
                <g id="moln2-copy-4" transform="translate(179.000000, 80.000000)" sketch:type="MSShapeGroup">
                    <path d="M77.8396256,16.2242664 C76.6974615,8.18849365 69.5933308,2 61,2 C56.9508272,2 53.2323,3.37402457 50.3123586,5.66789627 C45.8912176,2.12891017 40.2043732,0 34,0 C20.0187413,0 8.66551845,10.8107059 8.50179338,24.2063995 C3.41949276,27.0590793 0,32.3919521 0,38.5 C0,47.6126984 7.61115925,55 17,55 C19.8706699,55 22.575153,54.3093971 24.9467087,53.0900278 L24.9467087,53.0900278 C29.0256431,59.5923372 36.9245559,64 46,64 C54.0139139,64 61.1104315,60.5631392 65.4694285,55.2820262 C68.2335642,56.3868544 71.2881924,57 74.5,57 C86.9264069,57 97,47.8218374 97,36.5 C97,26.2120822 88.6822559,17.694192 77.8396256,16.2242664 Z" id="Oval-43"></path>
                </g>
                <g id="moln2-copy-5" transform="translate(329.000000, 190.000000)" sketch:type="MSShapeGroup">
                    <path d="M77.8396256,16.2242664 C76.6974615,8.18849365 69.5933308,2 61,2 C56.9508272,2 53.2323,3.37402457 50.3123586,5.66789627 C45.8912176,2.12891017 40.2043732,0 34,0 C20.0187413,0 8.66551845,10.8107059 8.50179338,24.2063995 C3.41949276,27.0590793 0,32.3919521 0,38.5 C0,47.6126984 7.61115925,55 17,55 C19.8706699,55 22.575153,54.3093971 24.9467087,53.0900278 L24.9467087,53.0900278 C29.0256431,59.5923372 36.9245559,64 46,64 C54.0139139,64 61.1104315,60.5631392 65.4694285,55.2820262 C68.2335642,56.3868544 71.2881924,57 74.5,57 C86.9264069,57 97,47.8218374 97,36.5 C97,26.2120822 88.6822559,17.694192 77.8396256,16.2242664 Z" id="Oval-43"></path>
                </g>
                <g id="moln2-copy-6" transform="translate(379.000000, 50.000000)" sketch:type="MSShapeGroup">
                    <path d="M77.8396256,16.2242664 C76.6974615,8.18849365 69.5933308,2 61,2 C56.9508272,2 53.2323,3.37402457 50.3123586,5.66789627 C45.8912176,2.12891017 40.2043732,0 34,0 C20.0187413,0 8.66551845,10.8107059 8.50179338,24.2063995 C3.41949276,27.0590793 0,32.3919521 0,38.5 C0,47.6126984 7.61115925,55 17,55 C19.8706699,55 22.575153,54.3093971 24.9467087,53.0900278 L24.9467087,53.0900278 C29.0256431,59.5923372 36.9245559,64 46,64 C54.0139139,64 61.1104315,60.5631392 65.4694285,55.2820262 C68.2335642,56.3868544 71.2881924,57 74.5,57 C86.9264069,57 97,47.8218374 97,36.5 C97,26.2120822 88.6822559,17.694192 77.8396256,16.2242664 Z" id="Oval-43"></path>
                </g>
                <g id="moln2-copy-7" transform="translate(509.000000, 10.000000)" sketch:type="MSShapeGroup">
                    <path d="M77.8396256,16.2242664 C76.6974615,8.18849365 69.5933308,2 61,2 C56.9508272,2 53.2323,3.37402457 50.3123586,5.66789627 C45.8912176,2.12891017 40.2043732,0 34,0 C20.0187413,0 8.66551845,10.8107059 8.50179338,24.2063995 C3.41949276,27.0590793 0,32.3919521 0,38.5 C0,47.6126984 7.61115925,55 17,55 C19.8706699,55 22.575153,54.3093971 24.9467087,53.0900278 L24.9467087,53.0900278 C29.0256431,59.5923372 36.9245559,64 46,64 C54.0139139,64 61.1104315,60.5631392 65.4694285,55.2820262 C68.2335642,56.3868544 71.2881924,57 74.5,57 C86.9264069,57 97,47.8218374 97,36.5 C97,26.2120822 88.6822559,17.694192 77.8396256,16.2242664 Z" id="Oval-43"></path>
                </g>
                <g id="moln2-copy-8" transform="translate(569.000000, 150.000000)" sketch:type="MSShapeGroup">
                    <path d="M77.8396256,16.2242664 C76.6974615,8.18849365 69.5933308,2 61,2 C56.9508272,2 53.2323,3.37402457 50.3123586,5.66789627 C45.8912176,2.12891017 40.2043732,0 34,0 C20.0187413,0 8.66551845,10.8107059 8.50179338,24.2063995 C3.41949276,27.0590793 0,32.3919521 0,38.5 C0,47.6126984 7.61115925,55 17,55 C19.8706699,55 22.575153,54.3093971 24.9467087,53.0900278 L24.9467087,53.0900278 C29.0256431,59.5923372 36.9245559,64 46,64 C54.0139139,64 61.1104315,60.5631392 65.4694285,55.2820262 C68.2335642,56.3868544 71.2881924,57 74.5,57 C86.9264069,57 97,47.8218374 97,36.5 C97,26.2120822 88.6822559,17.694192 77.8396256,16.2242664 Z" id="Oval-43"></path>
                </g>
                <g id="moln2-copy-9" transform="translate(700.000000, 79.000000)" sketch:type="MSShapeGroup">
                    <path d="M77.8396256,16.2242664 C76.6974615,8.18849365 69.5933308,2 61,2 C56.9508272,2 53.2323,3.37402457 50.3123586,5.66789627 C45.8912176,2.12891017 40.2043732,0 34,0 C20.0187413,0 8.66551845,10.8107059 8.50179338,24.2063995 C3.41949276,27.0590793 0,32.3919521 0,38.5 C0,47.6126984 7.61115925,55 17,55 C19.8706699,55 22.575153,54.3093971 24.9467087,53.0900278 L24.9467087,53.0900278 C29.0256431,59.5923372 36.9245559,64 46,64 C54.0139139,64 61.1104315,60.5631392 65.4694285,55.2820262 C68.2335642,56.3868544 71.2881924,57 74.5,57 C86.9264069,57 97,47.8218374 97,36.5 C97,26.2120822 88.6822559,17.694192 77.8396256,16.2242664 Z" id="Oval-43"></path>
                </g>
                <g id="moln2-copy-10" transform="translate(830.000000, 19.000000)" sketch:type="MSShapeGroup">
                    <path d="M77.8396256,16.2242664 C76.6974615,8.18849365 69.5933308,2 61,2 C56.9508272,2 53.2323,3.37402457 50.3123586,5.66789627 C45.8912176,2.12891017 40.2043732,0 34,0 C20.0187413,0 8.66551845,10.8107059 8.50179338,24.2063995 C3.41949276,27.0590793 0,32.3919521 0,38.5 C0,47.6126984 7.61115925,55 17,55 C19.8706699,55 22.575153,54.3093971 24.9467087,53.0900278 L24.9467087,53.0900278 C29.0256431,59.5923372 36.9245559,64 46,64 C54.0139139,64 61.1104315,60.5631392 65.4694285,55.2820262 C68.2335642,56.3868544 71.2881924,57 74.5,57 C86.9264069,57 97,47.8218374 97,36.5 C97,26.2120822 88.6822559,17.694192 77.8396256,16.2242664 Z" id="Oval-43"></path>
                </g>
                <g id="moln2-copy-11" transform="translate(890.000000, 169.000000)" sketch:type="MSShapeGroup">
                    <path d="M77.8396256,16.2242664 C76.6974615,8.18849365 69.5933308,2 61,2 C56.9508272,2 53.2323,3.37402457 50.3123586,5.66789627 C45.8912176,2.12891017 40.2043732,0 34,0 C20.0187413,0 8.66551845,10.8107059 8.50179338,24.2063995 C3.41949276,27.0590793 0,32.3919521 0,38.5 C0,47.6126984 7.61115925,55 17,55 C19.8706699,55 22.575153,54.3093971 24.9467087,53.0900278 L24.9467087,53.0900278 C29.0256431,59.5923372 36.9245559,64 46,64 C54.0139139,64 61.1104315,60.5631392 65.4694285,55.2820262 C68.2335642,56.3868544 71.2881924,57 74.5,57 C86.9264069,57 97,47.8218374 97,36.5 C97,26.2120822 88.6822559,17.694192 77.8396256,16.2242664 Z" id="Oval-43"></path>
                </g>
                <g id="moln2-copy-12" transform="translate(80.000000, 169.000000)" sketch:type="MSShapeGroup">
                    <path d="M77.8396256,16.2242664 C76.6974615,8.18849365 69.5933308,2 61,2 C56.9508272,2 53.2323,3.37402457 50.3123586,5.66789627 C45.8912176,2.12891017 40.2043732,0 34,0 C20.0187413,0 8.66551845,10.8107059 8.50179338,24.2063995 C3.41949276,27.0590793 0,32.3919521 0,38.5 C0,47.6126984 7.61115925,55 17,55 C19.8706699,55 22.575153,54.3093971 24.9467087,53.0900278 L24.9467087,53.0900278 C29.0256431,59.5923372 36.9245559,64 46,64 C54.0139139,64 61.1104315,60.5631392 65.4694285,55.2820262 C68.2335642,56.3868544 71.2881924,57 74.5,57 C86.9264069,57 97,47.8218374 97,36.5 C97,26.2120822 88.6822559,17.694192 77.8396256,16.2242664 Z" id="Oval-43"></path>
                </g>
                <g id="moln2-copy-13" transform="translate(170.000000, 299.000000)" sketch:type="MSShapeGroup">
                    <path d="M77.8396256,16.2242664 C76.6974615,8.18849365 69.5933308,2 61,2 C56.9508272,2 53.2323,3.37402457 50.3123586,5.66789627 C45.8912176,2.12891017 40.2043732,0 34,0 C20.0187413,0 8.66551845,10.8107059 8.50179338,24.2063995 C3.41949276,27.0590793 0,32.3919521 0,38.5 C0,47.6126984 7.61115925,55 17,55 C19.8706699,55 22.575153,54.3093971 24.9467087,53.0900278 L24.9467087,53.0900278 C29.0256431,59.5923372 36.9245559,64 46,64 C54.0139139,64 61.1104315,60.5631392 65.4694285,55.2820262 C68.2335642,56.3868544 71.2881924,57 74.5,57 C86.9264069,57 97,47.8218374 97,36.5 C97,26.2120822 88.6822559,17.694192 77.8396256,16.2242664 Z" id="Oval-43"></path>
                </g>
                <g id="moln2-copy-14" transform="translate(0.000000, 369.000000)" sketch:type="MSShapeGroup">
                    <path d="M77.8396256,16.2242664 C76.6974615,8.18849365 69.5933308,2 61,2 C56.9508272,2 53.2323,3.37402457 50.3123586,5.66789627 C45.8912176,2.12891017 40.2043732,0 34,0 C20.0187413,0 8.66551845,10.8107059 8.50179338,24.2063995 C3.41949276,27.0590793 0,32.3919521 0,38.5 C0,47.6126984 7.61115925,55 17,55 C19.8706699,55 22.575153,54.3093971 24.9467087,53.0900278 L24.9467087,53.0900278 C29.0256431,59.5923372 36.9245559,64 46,64 C54.0139139,64 61.1104315,60.5631392 65.4694285,55.2820262 C68.2335642,56.3868544 71.2881924,57 74.5,57 C86.9264069,57 97,47.8218374 97,36.5 C97,26.2120822 88.6822559,17.694192 77.8396256,16.2242664 Z" id="Oval-43"></path>
                </g>
                <g id="moln2-copy-15" transform="translate(320.000000, 369.000000)" sketch:type="MSShapeGroup">
                    <path d="M77.8396256,16.2242664 C76.6974615,8.18849365 69.5933308,2 61,2 C56.9508272,2 53.2323,3.37402457 50.3123586,5.66789627 C45.8912176,2.12891017 40.2043732,0 34,0 C20.0187413,0 8.66551845,10.8107059 8.50179338,24.2063995 C3.41949276,27.0590793 0,32.3919521 0,38.5 C0,47.6126984 7.61115925,55 17,55 C19.8706699,55 22.575153,54.3093971 24.9467087,53.0900278 L24.9467087,53.0900278 C29.0256431,59.5923372 36.9245559,64 46,64 C54.0139139,64 61.1104315,60.5631392 65.4694285,55.2820262 C68.2335642,56.3868544 71.2881924,57 74.5,57 C86.9264069,57 97,47.8218374 97,36.5 C97,26.2120822 88.6822559,17.694192 77.8396256,16.2242664 Z" id="Oval-43"></path>
                </g>
                <g id="moln2-copy-16" transform="translate(450.000000, 289.000000)" sketch:type="MSShapeGroup">
                    <path d="M77.8396256,16.2242664 C76.6974615,8.18849365 69.5933308,2 61,2 C56.9508272,2 53.2323,3.37402457 50.3123586,5.66789627 C45.8912176,2.12891017 40.2043732,0 34,0 C20.0187413,0 8.66551845,10.8107059 8.50179338,24.2063995 C3.41949276,27.0590793 0,32.3919521 0,38.5 C0,47.6126984 7.61115925,55 17,55 C19.8706699,55 22.575153,54.3093971 24.9467087,53.0900278 L24.9467087,53.0900278 C29.0256431,59.5923372 36.9245559,64 46,64 C54.0139139,64 61.1104315,60.5631392 65.4694285,55.2820262 C68.2335642,56.3868544 71.2881924,57 74.5,57 C86.9264069,57 97,47.8218374 97,36.5 C97,26.2120822 88.6822559,17.694192 77.8396256,16.2242664 Z" id="Oval-43"></path>
                </g>
                <g id="moln2-copy-17" transform="translate(650.000000, 409.000000)" sketch:type="MSShapeGroup">
                    <path d="M77.8396256,16.2242664 C76.6974615,8.18849365 69.5933308,2 61,2 C56.9508272,2 53.2323,3.37402457 50.3123586,5.66789627 C45.8912176,2.12891017 40.2043732,0 34,0 C20.0187413,0 8.66551845,10.8107059 8.50179338,24.2063995 C3.41949276,27.0590793 0,32.3919521 0,38.5 C0,47.6126984 7.61115925,55 17,55 C19.8706699,55 22.575153,54.3093971 24.9467087,53.0900278 L24.9467087,53.0900278 C29.0256431,59.5923372 36.9245559,64 46,64 C54.0139139,64 61.1104315,60.5631392 65.4694285,55.2820262 C68.2335642,56.3868544 71.2881924,57 74.5,57 C86.9264069,57 97,47.8218374 97,36.5 C97,26.2120822 88.6822559,17.694192 77.8396256,16.2242664 Z" id="Oval-43"></path>
                </g>
                <g id="moln2-copy-18" transform="translate(690.000000, 269.000000)" sketch:type="MSShapeGroup">
                    <path d="M77.8396256,16.2242664 C76.6974615,8.18849365 69.5933308,2 61,2 C56.9508272,2 53.2323,3.37402457 50.3123586,5.66789627 C45.8912176,2.12891017 40.2043732,0 34,0 C20.0187413,0 8.66551845,10.8107059 8.50179338,24.2063995 C3.41949276,27.0590793 0,32.3919521 0,38.5 C0,47.6126984 7.61115925,55 17,55 C19.8706699,55 22.575153,54.3093971 24.9467087,53.0900278 L24.9467087,53.0900278 C29.0256431,59.5923372 36.9245559,64 46,64 C54.0139139,64 61.1104315,60.5631392 65.4694285,55.2820262 C68.2335642,56.3868544 71.2881924,57 74.5,57 C86.9264069,57 97,47.8218374 97,36.5 C97,26.2120822 88.6822559,17.694192 77.8396256,16.2242664 Z" id="Oval-43"></path>
                </g>
                <g id="moln2-copy-19" transform="translate(840.000000, 349.000000)" sketch:type="MSShapeGroup">
                    <path d="M77.8396256,16.2242664 C76.6974615,8.18849365 69.5933308,2 61,2 C56.9508272,2 53.2323,3.37402457 50.3123586,5.66789627 C45.8912176,2.12891017 40.2043732,0 34,0 C20.0187413,0 8.66551845,10.8107059 8.50179338,24.2063995 C3.41949276,27.0590793 0,32.3919521 0,38.5 C0,47.6126984 7.61115925,55 17,55 C19.8706699,55 22.575153,54.3093971 24.9467087,53.0900278 L24.9467087,53.0900278 C29.0256431,59.5923372 36.9245559,64 46,64 C54.0139139,64 61.1104315,60.5631392 65.4694285,55.2820262 C68.2335642,56.3868544 71.2881924,57 74.5,57 C86.9264069,57 97,47.8218374 97,36.5 C97,26.2120822 88.6822559,17.694192 77.8396256,16.2242664 Z" id="Oval-43"></path>
                </g>
                <g id="moln2-copy-20" transform="translate(940.000000, 479.000000)" sketch:type="MSShapeGroup">
                    <path d="M77.8396256,16.2242664 C76.6974615,8.18849365 69.5933308,2 61,2 C56.9508272,2 53.2323,3.37402457 50.3123586,5.66789627 C45.8912176,2.12891017 40.2043732,0 34,0 C20.0187413,0 8.66551845,10.8107059 8.50179338,24.2063995 C3.41949276,27.0590793 0,32.3919521 0,38.5 C0,47.6126984 7.61115925,55 17,55 C19.8706699,55 22.575153,54.3093971 24.9467087,53.0900278 L24.9467087,53.0900278 C29.0256431,59.5923372 36.9245559,64 46,64 C54.0139139,64 61.1104315,60.5631392 65.4694285,55.2820262 C68.2335642,56.3868544 71.2881924,57 74.5,57 C86.9264069,57 97,47.8218374 97,36.5 C97,26.2120822 88.6822559,17.694192 77.8396256,16.2242664 Z" id="Oval-43"></path>
                </g>
            </g>
            <g id="Group-Copy" sketch:type="MSLayerGroup" transform="translate(-5.000000, 481.000000)">
                <g id="moln2-copy-3" transform="translate(49.000000, 0.000000)" sketch:type="MSShapeGroup">
                    <path d="M77.8396256,16.2242664 C76.6974615,8.18849365 69.5933308,2 61,2 C56.9508272,2 53.2323,3.37402457 50.3123586,5.66789627 C45.8912176,2.12891017 40.2043732,0 34,0 C20.0187413,0 8.66551845,10.8107059 8.50179338,24.2063995 C3.41949276,27.0590793 0,32.3919521 0,38.5 C0,47.6126984 7.61115925,55 17,55 C19.8706699,55 22.575153,54.3093971 24.9467087,53.0900278 L24.9467087,53.0900278 C29.0256431,59.5923372 36.9245559,64 46,64 C54.0139139,64 61.1104315,60.5631392 65.4694285,55.2820262 C68.2335642,56.3868544 71.2881924,57 74.5,57 C86.9264069,57 97,47.8218374 97,36.5 C97,26.2120822 88.6822559,17.694192 77.8396256,16.2242664 Z" id="Oval-43"></path>
                </g>
                <g id="moln2-copy-4" transform="translate(179.000000, 80.000000)" sketch:type="MSShapeGroup">
                    <path d="M77.8396256,16.2242664 C76.6974615,8.18849365 69.5933308,2 61,2 C56.9508272,2 53.2323,3.37402457 50.3123586,5.66789627 C45.8912176,2.12891017 40.2043732,0 34,0 C20.0187413,0 8.66551845,10.8107059 8.50179338,24.2063995 C3.41949276,27.0590793 0,32.3919521 0,38.5 C0,47.6126984 7.61115925,55 17,55 C19.8706699,55 22.575153,54.3093971 24.9467087,53.0900278 L24.9467087,53.0900278 C29.0256431,59.5923372 36.9245559,64 46,64 C54.0139139,64 61.1104315,60.5631392 65.4694285,55.2820262 C68.2335642,56.3868544 71.2881924,57 74.5,57 C86.9264069,57 97,47.8218374 97,36.5 C97,26.2120822 88.6822559,17.694192 77.8396256,16.2242664 Z" id="Oval-43"></path>
                </g>
                <g id="moln2-copy-5" transform="translate(329.000000, 190.000000)" sketch:type="MSShapeGroup">
                    <path d="M77.8396256,16.2242664 C76.6974615,8.18849365 69.5933308,2 61,2 C56.9508272,2 53.2323,3.37402457 50.3123586,5.66789627 C45.8912176,2.12891017 40.2043732,0 34,0 C20.0187413,0 8.66551845,10.8107059 8.50179338,24.2063995 C3.41949276,27.0590793 0,32.3919521 0,38.5 C0,47.6126984 7.61115925,55 17,55 C19.8706699,55 22.575153,54.3093971 24.9467087,53.0900278 L24.9467087,53.0900278 C29.0256431,59.5923372 36.9245559,64 46,64 C54.0139139,64 61.1104315,60.5631392 65.4694285,55.2820262 C68.2335642,56.3868544 71.2881924,57 74.5,57 C86.9264069,57 97,47.8218374 97,36.5 C97,26.2120822 88.6822559,17.694192 77.8396256,16.2242664 Z" id="Oval-43"></path>
                </g>
                <g id="moln2-copy-6" transform="translate(379.000000, 50.000000)" sketch:type="MSShapeGroup">
                    <path d="M77.8396256,16.2242664 C76.6974615,8.18849365 69.5933308,2 61,2 C56.9508272,2 53.2323,3.37402457 50.3123586,5.66789627 C45.8912176,2.12891017 40.2043732,0 34,0 C20.0187413,0 8.66551845,10.8107059 8.50179338,24.2063995 C3.41949276,27.0590793 0,32.3919521 0,38.5 C0,47.6126984 7.61115925,55 17,55 C19.8706699,55 22.575153,54.3093971 24.9467087,53.0900278 L24.9467087,53.0900278 C29.0256431,59.5923372 36.9245559,64 46,64 C54.0139139,64 61.1104315,60.5631392 65.4694285,55.2820262 C68.2335642,56.3868544 71.2881924,57 74.5,57 C86.9264069,57 97,47.8218374 97,36.5 C97,26.2120822 88.6822559,17.694192 77.8396256,16.2242664 Z" id="Oval-43"></path>
                </g>
                <g id="moln2-copy-7" transform="translate(509.000000, 10.000000)" sketch:type="MSShapeGroup">
                    <path d="M77.8396256,16.2242664 C76.6974615,8.18849365 69.5933308,2 61,2 C56.9508272,2 53.2323,3.37402457 50.3123586,5.66789627 C45.8912176,2.12891017 40.2043732,0 34,0 C20.0187413,0 8.66551845,10.8107059 8.50179338,24.2063995 C3.41949276,27.0590793 0,32.3919521 0,38.5 C0,47.6126984 7.61115925,55 17,55 C19.8706699,55 22.575153,54.3093971 24.9467087,53.0900278 L24.9467087,53.0900278 C29.0256431,59.5923372 36.9245559,64 46,64 C54.0139139,64 61.1104315,60.5631392 65.4694285,55.2820262 C68.2335642,56.3868544 71.2881924,57 74.5,57 C86.9264069,57 97,47.8218374 97,36.5 C97,26.2120822 88.6822559,17.694192 77.8396256,16.2242664 Z" id="Oval-43"></path>
                </g>
                <g id="moln2-copy-8" transform="translate(569.000000, 150.000000)" sketch:type="MSShapeGroup">
                    <path d="M77.8396256,16.2242664 C76.6974615,8.18849365 69.5933308,2 61,2 C56.9508272,2 53.2323,3.37402457 50.3123586,5.66789627 C45.8912176,2.12891017 40.2043732,0 34,0 C20.0187413,0 8.66551845,10.8107059 8.50179338,24.2063995 C3.41949276,27.0590793 0,32.3919521 0,38.5 C0,47.6126984 7.61115925,55 17,55 C19.8706699,55 22.575153,54.3093971 24.9467087,53.0900278 L24.9467087,53.0900278 C29.0256431,59.5923372 36.9245559,64 46,64 C54.0139139,64 61.1104315,60.5631392 65.4694285,55.2820262 C68.2335642,56.3868544 71.2881924,57 74.5,57 C86.9264069,57 97,47.8218374 97,36.5 C97,26.2120822 88.6822559,17.694192 77.8396256,16.2242664 Z" id="Oval-43"></path>
                </g>
                <g id="moln2-copy-9" transform="translate(700.000000, 79.000000)" sketch:type="MSShapeGroup">
                    <path d="M77.8396256,16.2242664 C76.6974615,8.18849365 69.5933308,2 61,2 C56.9508272,2 53.2323,3.37402457 50.3123586,5.66789627 C45.8912176,2.12891017 40.2043732,0 34,0 C20.0187413,0 8.66551845,10.8107059 8.50179338,24.2063995 C3.41949276,27.0590793 0,32.3919521 0,38.5 C0,47.6126984 7.61115925,55 17,55 C19.8706699,55 22.575153,54.3093971 24.9467087,53.0900278 L24.9467087,53.0900278 C29.0256431,59.5923372 36.9245559,64 46,64 C54.0139139,64 61.1104315,60.5631392 65.4694285,55.2820262 C68.2335642,56.3868544 71.2881924,57 74.5,57 C86.9264069,57 97,47.8218374 97,36.5 C97,26.2120822 88.6822559,17.694192 77.8396256,16.2242664 Z" id="Oval-43"></path>
                </g>
                <g id="moln2-copy-11" transform="translate(890.000000, 169.000000)" sketch:type="MSShapeGroup">
                    <path d="M77.8396256,16.2242664 C76.6974615,8.18849365 69.5933308,2 61,2 C56.9508272,2 53.2323,3.37402457 50.3123586,5.66789627 C45.8912176,2.12891017 40.2043732,0 34,0 C20.0187413,0 8.66551845,10.8107059 8.50179338,24.2063995 C3.41949276,27.0590793 0,32.3919521 0,38.5 C0,47.6126984 7.61115925,55 17,55 C19.8706699,55 22.575153,54.3093971 24.9467087,53.0900278 L24.9467087,53.0900278 C29.0256431,59.5923372 36.9245559,64 46,64 C54.0139139,64 61.1104315,60.5631392 65.4694285,55.2820262 C68.2335642,56.3868544 71.2881924,57 74.5,57 C86.9264069,57 97,47.8218374 97,36.5 C97,26.2120822 88.6822559,17.694192 77.8396256,16.2242664 Z" id="Oval-43"></path>
                </g>
                <g id="moln2-copy-12" transform="translate(80.000000, 169.000000)" sketch:type="MSShapeGroup">
                    <path d="M77.8396256,16.2242664 C76.6974615,8.18849365 69.5933308,2 61,2 C56.9508272,2 53.2323,3.37402457 50.3123586,5.66789627 C45.8912176,2.12891017 40.2043732,0 34,0 C20.0187413,0 8.66551845,10.8107059 8.50179338,24.2063995 C3.41949276,27.0590793 0,32.3919521 0,38.5 C0,47.6126984 7.61115925,55 17,55 C19.8706699,55 22.575153,54.3093971 24.9467087,53.0900278 L24.9467087,53.0900278 C29.0256431,59.5923372 36.9245559,64 46,64 C54.0139139,64 61.1104315,60.5631392 65.4694285,55.2820262 C68.2335642,56.3868544 71.2881924,57 74.5,57 C86.9264069,57 97,47.8218374 97,36.5 C97,26.2120822 88.6822559,17.694192 77.8396256,16.2242664 Z" id="Oval-43"></path>
                </g>
                <g id="moln2-copy-13" transform="translate(170.000000, 299.000000)" sketch:type="MSShapeGroup">
                    <path d="M77.8396256,16.2242664 C76.6974615,8.18849365 69.5933308,2 61,2 C56.9508272,2 53.2323,3.37402457 50.3123586,5.66789627 C45.8912176,2.12891017 40.2043732,0 34,0 C20.0187413,0 8.66551845,10.8107059 8.50179338,24.2063995 C3.41949276,27.0590793 0,32.3919521 0,38.5 C0,47.6126984 7.61115925,55 17,55 C19.8706699,55 22.575153,54.3093971 24.9467087,53.0900278 L24.9467087,53.0900278 C29.0256431,59.5923372 36.9245559,64 46,64 C54.0139139,64 61.1104315,60.5631392 65.4694285,55.2820262 C68.2335642,56.3868544 71.2881924,57 74.5,57 C86.9264069,57 97,47.8218374 97,36.5 C97,26.2120822 88.6822559,17.694192 77.8396256,16.2242664 Z" id="Oval-43"></path>
                </g>
                <g id="moln2-copy-14" transform="translate(0.000000, 369.000000)" sketch:type="MSShapeGroup">
                    <path d="M77.8396256,16.2242664 C76.6974615,8.18849365 69.5933308,2 61,2 C56.9508272,2 53.2323,3.37402457 50.3123586,5.66789627 C45.8912176,2.12891017 40.2043732,0 34,0 C20.0187413,0 8.66551845,10.8107059 8.50179338,24.2063995 C3.41949276,27.0590793 0,32.3919521 0,38.5 C0,47.6126984 7.61115925,55 17,55 C19.8706699,55 22.575153,54.3093971 24.9467087,53.0900278 L24.9467087,53.0900278 C29.0256431,59.5923372 36.9245559,64 46,64 C54.0139139,64 61.1104315,60.5631392 65.4694285,55.2820262 C68.2335642,56.3868544 71.2881924,57 74.5,57 C86.9264069,57 97,47.8218374 97,36.5 C97,26.2120822 88.6822559,17.694192 77.8396256,16.2242664 Z" id="Oval-43"></path>
                </g>
                <g id="moln2-copy-15" transform="translate(320.000000, 369.000000)" sketch:type="MSShapeGroup">
                    <path d="M77.8396256,16.2242664 C76.6974615,8.18849365 69.5933308,2 61,2 C56.9508272,2 53.2323,3.37402457 50.3123586,5.66789627 C45.8912176,2.12891017 40.2043732,0 34,0 C20.0187413,0 8.66551845,10.8107059 8.50179338,24.2063995 C3.41949276,27.0590793 0,32.3919521 0,38.5 C0,47.6126984 7.61115925,55 17,55 C19.8706699,55 22.575153,54.3093971 24.9467087,53.0900278 L24.9467087,53.0900278 C29.0256431,59.5923372 36.9245559,64 46,64 C54.0139139,64 61.1104315,60.5631392 65.4694285,55.2820262 C68.2335642,56.3868544 71.2881924,57 74.5,57 C86.9264069,57 97,47.8218374 97,36.5 C97,26.2120822 88.6822559,17.694192 77.8396256,16.2242664 Z" id="Oval-43"></path>
                </g>
                <g id="moln2-copy-21" transform="translate(170.000000, 459.000000)" sketch:type="MSShapeGroup">
                    <path d="M77.8396256,16.2242664 C76.6974615,8.18849365 69.5933308,2 61,2 C56.9508272,2 53.2323,3.37402457 50.3123586,5.66789627 C45.8912176,2.12891017 40.2043732,0 34,0 C20.0187413,0 8.66551845,10.8107059 8.50179338,24.2063995 C3.41949276,27.0590793 0,32.3919521 0,38.5 C0,47.6126984 7.61115925,55 17,55 C19.8706699,55 22.575153,54.3093971 24.9467087,53.0900278 L24.9467087,53.0900278 C29.0256431,59.5923372 36.9245559,64 46,64 C54.0139139,64 61.1104315,60.5631392 65.4694285,55.2820262 C68.2335642,56.3868544 71.2881924,57 74.5,57 C86.9264069,57 97,47.8218374 97,36.5 C97,26.2120822 88.6822559,17.694192 77.8396256,16.2242664 Z" id="Oval-43"></path>
                </g>
                <g id="moln2-copy-22" transform="translate(470.000000, 479.000000)" sketch:type="MSShapeGroup">
                    <path d="M77.8396256,16.2242664 C76.6974615,8.18849365 69.5933308,2 61,2 C56.9508272,2 53.2323,3.37402457 50.3123586,5.66789627 C45.8912176,2.12891017 40.2043732,0 34,0 C20.0187413,0 8.66551845,10.8107059 8.50179338,24.2063995 C3.41949276,27.0590793 0,32.3919521 0,38.5 C0,47.6126984 7.61115925,55 17,55 C19.8706699,55 22.575153,54.3093971 24.9467087,53.0900278 L24.9467087,53.0900278 C29.0256431,59.5923372 36.9245559,64 46,64 C54.0139139,64 61.1104315,60.5631392 65.4694285,55.2820262 C68.2335642,56.3868544 71.2881924,57 74.5,57 C86.9264069,57 97,47.8218374 97,36.5 C97,26.2120822 88.6822559,17.694192 77.8396256,16.2242664 Z" id="Oval-43"></path>
                </g>
                <g id="moln2-copy-16" transform="translate(450.000000, 289.000000)" sketch:type="MSShapeGroup">
                    <path d="M77.8396256,16.2242664 C76.6974615,8.18849365 69.5933308,2 61,2 C56.9508272,2 53.2323,3.37402457 50.3123586,5.66789627 C45.8912176,2.12891017 40.2043732,0 34,0 C20.0187413,0 8.66551845,10.8107059 8.50179338,24.2063995 C3.41949276,27.0590793 0,32.3919521 0,38.5 C0,47.6126984 7.61115925,55 17,55 C19.8706699,55 22.575153,54.3093971 24.9467087,53.0900278 L24.9467087,53.0900278 C29.0256431,59.5923372 36.9245559,64 46,64 C54.0139139,64 61.1104315,60.5631392 65.4694285,55.2820262 C68.2335642,56.3868544 71.2881924,57 74.5,57 C86.9264069,57 97,47.8218374 97,36.5 C97,26.2120822 88.6822559,17.694192 77.8396256,16.2242664 Z" id="Oval-43"></path>
                </g>
                <g id="moln2-copy-17" transform="translate(650.000000, 409.000000)" sketch:type="MSShapeGroup">
                    <path d="M77.8396256,16.2242664 C76.6974615,8.18849365 69.5933308,2 61,2 C56.9508272,2 53.2323,3.37402457 50.3123586,5.66789627 C45.8912176,2.12891017 40.2043732,0 34,0 C20.0187413,0 8.66551845,10.8107059 8.50179338,24.2063995 C3.41949276,27.0590793 0,32.3919521 0,38.5 C0,47.6126984 7.61115925,55 17,55 C19.8706699,55 22.575153,54.3093971 24.9467087,53.0900278 L24.9467087,53.0900278 C29.0256431,59.5923372 36.9245559,64 46,64 C54.0139139,64 61.1104315,60.5631392 65.4694285,55.2820262 C68.2335642,56.3868544 71.2881924,57 74.5,57 C86.9264069,57 97,47.8218374 97,36.5 C97,26.2120822 88.6822559,17.694192 77.8396256,16.2242664 Z" id="Oval-43"></path>
                </g>
                <g id="moln2-copy-18" transform="translate(690.000000, 269.000000)" sketch:type="MSShapeGroup">
                    <path d="M77.8396256,16.2242664 C76.6974615,8.18849365 69.5933308,2 61,2 C56.9508272,2 53.2323,3.37402457 50.3123586,5.66789627 C45.8912176,2.12891017 40.2043732,0 34,0 C20.0187413,0 8.66551845,10.8107059 8.50179338,24.2063995 C3.41949276,27.0590793 0,32.3919521 0,38.5 C0,47.6126984 7.61115925,55 17,55 C19.8706699,55 22.575153,54.3093971 24.9467087,53.0900278 L24.9467087,53.0900278 C29.0256431,59.5923372 36.9245559,64 46,64 C54.0139139,64 61.1104315,60.5631392 65.4694285,55.2820262 C68.2335642,56.3868544 71.2881924,57 74.5,57 C86.9264069,57 97,47.8218374 97,36.5 C97,26.2120822 88.6822559,17.694192 77.8396256,16.2242664 Z" id="Oval-43"></path>
                </g>
                <g id="moln2-copy-19" transform="translate(840.000000, 349.000000)" sketch:type="MSShapeGroup">
                    <path d="M77.8396256,16.2242664 C76.6974615,8.18849365 69.5933308,2 61,2 C56.9508272,2 53.2323,3.37402457 50.3123586,5.66789627 C45.8912176,2.12891017 40.2043732,0 34,0 C20.0187413,0 8.66551845,10.8107059 8.50179338,24.2063995 C3.41949276,27.0590793 0,32.3919521 0,38.5 C0,47.6126984 7.61115925,55 17,55 C19.8706699,55 22.575153,54.3093971 24.9467087,53.0900278 L24.9467087,53.0900278 C29.0256431,59.5923372 36.9245559,64 46,64 C54.0139139,64 61.1104315,60.5631392 65.4694285,55.2820262 C68.2335642,56.3868544 71.2881924,57 74.5,57 C86.9264069,57 97,47.8218374 97,36.5 C97,26.2120822 88.6822559,17.694192 77.8396256,16.2242664 Z" id="Oval-43"></path>
                </g>
                <g id="moln2-copy-20" transform="translate(940.000000, 479.000000)" sketch:type="MSShapeGroup">
                    <path d="M77.8396256,16.2242664 C76.6974615,8.18849365 69.5933308,2 61,2 C56.9508272,2 53.2323,3.37402457 50.3123586,5.66789627 C45.8912176,2.12891017 40.2043732,0 34,0 C20.0187413,0 8.66551845,10.8107059 8.50179338,24.2063995 C3.41949276,27.0590793 0,32.3919521 0,38.5 C0,47.6126984 7.61115925,55 17,55 C19.8706699,55 22.575153,54.3093971 24.9467087,53.0900278 L24.9467087,53.0900278 C29.0256431,59.5923372 36.9245559,64 46,64 C54.0139139,64 61.1104315,60.5631392 65.4694285,55.2820262 C68.2335642,56.3868544 71.2881924,57 74.5,57 C86.9264069,57 97,47.8218374 97,36.5 C97,26.2120822 88.6822559,17.694192 77.8396256,16.2242664 Z" id="Oval-43"></path>
                </g>
            </g>
            <g id="Group-Copy-2" sketch:type="MSLayerGroup" transform="translate(-5.000000, 1030.000000)">
                <g id="moln2-copy-3" transform="translate(49.000000, 41.000000)" sketch:type="MSShapeGroup">
                    <path d="M77.8396256,16.2242664 C76.6974615,8.18849365 69.5933308,2 61,2 C56.9508272,2 53.2323,3.37402457 50.3123586,5.66789627 C45.8912176,2.12891017 40.2043732,0 34,0 C20.0187413,0 8.66551845,10.8107059 8.50179338,24.2063995 C3.41949276,27.0590793 0,32.3919521 0,38.5 C0,47.6126984 7.61115925,55 17,55 C19.8706699,55 22.575153,54.3093971 24.9467087,53.0900278 L24.9467087,53.0900278 C29.0256431,59.5923372 36.9245559,64 46,64 C54.0139139,64 61.1104315,60.5631392 65.4694285,55.2820262 C68.2335642,56.3868544 71.2881924,57 74.5,57 C86.9264069,57 97,47.8218374 97,36.5 C97,26.2120822 88.6822559,17.694192 77.8396256,16.2242664 Z" id="Oval-43"></path>
                </g>
                <g id="moln2-copy-4" transform="translate(179.000000, 121.000000)" sketch:type="MSShapeGroup">
                    <path d="M77.8396256,16.2242664 C76.6974615,8.18849365 69.5933308,2 61,2 C56.9508272,2 53.2323,3.37402457 50.3123586,5.66789627 C45.8912176,2.12891017 40.2043732,0 34,0 C20.0187413,0 8.66551845,10.8107059 8.50179338,24.2063995 C3.41949276,27.0590793 0,32.3919521 0,38.5 C0,47.6126984 7.61115925,55 17,55 C19.8706699,55 22.575153,54.3093971 24.9467087,53.0900278 L24.9467087,53.0900278 C29.0256431,59.5923372 36.9245559,64 46,64 C54.0139139,64 61.1104315,60.5631392 65.4694285,55.2820262 C68.2335642,56.3868544 71.2881924,57 74.5,57 C86.9264069,57 97,47.8218374 97,36.5 C97,26.2120822 88.6822559,17.694192 77.8396256,16.2242664 Z" id="Oval-43"></path>
                </g>
                <g id="moln2-copy-5" transform="translate(329.000000, 231.000000)" sketch:type="MSShapeGroup">
                    <path d="M77.8396256,16.2242664 C76.6974615,8.18849365 69.5933308,2 61,2 C56.9508272,2 53.2323,3.37402457 50.3123586,5.66789627 C45.8912176,2.12891017 40.2043732,0 34,0 C20.0187413,0 8.66551845,10.8107059 8.50179338,24.2063995 C3.41949276,27.0590793 0,32.3919521 0,38.5 C0,47.6126984 7.61115925,55 17,55 C19.8706699,55 22.575153,54.3093971 24.9467087,53.0900278 L24.9467087,53.0900278 C29.0256431,59.5923372 36.9245559,64 46,64 C54.0139139,64 61.1104315,60.5631392 65.4694285,55.2820262 C68.2335642,56.3868544 71.2881924,57 74.5,57 C86.9264069,57 97,47.8218374 97,36.5 C97,26.2120822 88.6822559,17.694192 77.8396256,16.2242664 Z" id="Oval-43"></path>
                </g>
                <g id="moln2-copy-6" transform="translate(379.000000, 91.000000)" sketch:type="MSShapeGroup">
                    <path d="M77.8396256,16.2242664 C76.6974615,8.18849365 69.5933308,2 61,2 C56.9508272,2 53.2323,3.37402457 50.3123586,5.66789627 C45.8912176,2.12891017 40.2043732,0 34,0 C20.0187413,0 8.66551845,10.8107059 8.50179338,24.2063995 C3.41949276,27.0590793 0,32.3919521 0,38.5 C0,47.6126984 7.61115925,55 17,55 C19.8706699,55 22.575153,54.3093971 24.9467087,53.0900278 L24.9467087,53.0900278 C29.0256431,59.5923372 36.9245559,64 46,64 C54.0139139,64 61.1104315,60.5631392 65.4694285,55.2820262 C68.2335642,56.3868544 71.2881924,57 74.5,57 C86.9264069,57 97,47.8218374 97,36.5 C97,26.2120822 88.6822559,17.694192 77.8396256,16.2242664 Z" id="Oval-43"></path>
                </g>
                <g id="moln2-copy-7" transform="translate(509.000000, 51.000000)" sketch:type="MSShapeGroup">
                    <path d="M77.8396256,16.2242664 C76.6974615,8.18849365 69.5933308,2 61,2 C56.9508272,2 53.2323,3.37402457 50.3123586,5.66789627 C45.8912176,2.12891017 40.2043732,0 34,0 C20.0187413,0 8.66551845,10.8107059 8.50179338,24.2063995 C3.41949276,27.0590793 0,32.3919521 0,38.5 C0,47.6126984 7.61115925,55 17,55 C19.8706699,55 22.575153,54.3093971 24.9467087,53.0900278 L24.9467087,53.0900278 C29.0256431,59.5923372 36.9245559,64 46,64 C54.0139139,64 61.1104315,60.5631392 65.4694285,55.2820262 C68.2335642,56.3868544 71.2881924,57 74.5,57 C86.9264069,57 97,47.8218374 97,36.5 C97,26.2120822 88.6822559,17.694192 77.8396256,16.2242664 Z" id="Oval-43"></path>
                </g>
                <g id="moln2-copy-8" transform="translate(569.000000, 191.000000)" sketch:type="MSShapeGroup">
                    <path d="M77.8396256,16.2242664 C76.6974615,8.18849365 69.5933308,2 61,2 C56.9508272,2 53.2323,3.37402457 50.3123586,5.66789627 C45.8912176,2.12891017 40.2043732,0 34,0 C20.0187413,0 8.66551845,10.8107059 8.50179338,24.2063995 C3.41949276,27.0590793 0,32.3919521 0,38.5 C0,47.6126984 7.61115925,55 17,55 C19.8706699,55 22.575153,54.3093971 24.9467087,53.0900278 L24.9467087,53.0900278 C29.0256431,59.5923372 36.9245559,64 46,64 C54.0139139,64 61.1104315,60.5631392 65.4694285,55.2820262 C68.2335642,56.3868544 71.2881924,57 74.5,57 C86.9264069,57 97,47.8218374 97,36.5 C97,26.2120822 88.6822559,17.694192 77.8396256,16.2242664 Z" id="Oval-43"></path>
                </g>
                <g id="moln2-copy-9" transform="translate(700.000000, 120.000000)" sketch:type="MSShapeGroup">
                    <path d="M77.8396256,16.2242664 C76.6974615,8.18849365 69.5933308,2 61,2 C56.9508272,2 53.2323,3.37402457 50.3123586,5.66789627 C45.8912176,2.12891017 40.2043732,0 34,0 C20.0187413,0 8.66551845,10.8107059 8.50179338,24.2063995 C3.41949276,27.0590793 0,32.3919521 0,38.5 C0,47.6126984 7.61115925,55 17,55 C19.8706699,55 22.575153,54.3093971 24.9467087,53.0900278 L24.9467087,53.0900278 C29.0256431,59.5923372 36.9245559,64 46,64 C54.0139139,64 61.1104315,60.5631392 65.4694285,55.2820262 C68.2335642,56.3868544 71.2881924,57 74.5,57 C86.9264069,57 97,47.8218374 97,36.5 C97,26.2120822 88.6822559,17.694192 77.8396256,16.2242664 Z" id="Oval-43"></path>
                </g>
                <g id="moln2-copy-23" transform="translate(750.000000, 0.000000)" sketch:type="MSShapeGroup">
                    <path d="M77.8396256,16.2242664 C76.6974615,8.18849365 69.5933308,2 61,2 C56.9508272,2 53.2323,3.37402457 50.3123586,5.66789627 C45.8912176,2.12891017 40.2043732,0 34,0 C20.0187413,0 8.66551845,10.8107059 8.50179338,24.2063995 C3.41949276,27.0590793 0,32.3919521 0,38.5 C0,47.6126984 7.61115925,55 17,55 C19.8706699,55 22.575153,54.3093971 24.9467087,53.0900278 L24.9467087,53.0900278 C29.0256431,59.5923372 36.9245559,64 46,64 C54.0139139,64 61.1104315,60.5631392 65.4694285,55.2820262 C68.2335642,56.3868544 71.2881924,57 74.5,57 C86.9264069,57 97,47.8218374 97,36.5 C97,26.2120822 88.6822559,17.694192 77.8396256,16.2242664 Z" id="Oval-43"></path>
                </g>
                <g id="moln2-copy-11" transform="translate(890.000000, 210.000000)" sketch:type="MSShapeGroup">
                    <path d="M77.8396256,16.2242664 C76.6974615,8.18849365 69.5933308,2 61,2 C56.9508272,2 53.2323,3.37402457 50.3123586,5.66789627 C45.8912176,2.12891017 40.2043732,0 34,0 C20.0187413,0 8.66551845,10.8107059 8.50179338,24.2063995 C3.41949276,27.0590793 0,32.3919521 0,38.5 C0,47.6126984 7.61115925,55 17,55 C19.8706699,55 22.575153,54.3093971 24.9467087,53.0900278 L24.9467087,53.0900278 C29.0256431,59.5923372 36.9245559,64 46,64 C54.0139139,64 61.1104315,60.5631392 65.4694285,55.2820262 C68.2335642,56.3868544 71.2881924,57 74.5,57 C86.9264069,57 97,47.8218374 97,36.5 C97,26.2120822 88.6822559,17.694192 77.8396256,16.2242664 Z" id="Oval-43"></path>
                </g>
                <g id="moln2-copy-12" transform="translate(80.000000, 210.000000)" sketch:type="MSShapeGroup">
                    <path d="M77.8396256,16.2242664 C76.6974615,8.18849365 69.5933308,2 61,2 C56.9508272,2 53.2323,3.37402457 50.3123586,5.66789627 C45.8912176,2.12891017 40.2043732,0 34,0 C20.0187413,0 8.66551845,10.8107059 8.50179338,24.2063995 C3.41949276,27.0590793 0,32.3919521 0,38.5 C0,47.6126984 7.61115925,55 17,55 C19.8706699,55 22.575153,54.3093971 24.9467087,53.0900278 L24.9467087,53.0900278 C29.0256431,59.5923372 36.9245559,64 46,64 C54.0139139,64 61.1104315,60.5631392 65.4694285,55.2820262 C68.2335642,56.3868544 71.2881924,57 74.5,57 C86.9264069,57 97,47.8218374 97,36.5 C97,26.2120822 88.6822559,17.694192 77.8396256,16.2242664 Z" id="Oval-43"></path>
                </g>
                <g id="moln2-copy-13" transform="translate(170.000000, 340.000000)" sketch:type="MSShapeGroup">
                    <path d="M77.8396256,16.2242664 C76.6974615,8.18849365 69.5933308,2 61,2 C56.9508272,2 53.2323,3.37402457 50.3123586,5.66789627 C45.8912176,2.12891017 40.2043732,0 34,0 C20.0187413,0 8.66551845,10.8107059 8.50179338,24.2063995 C3.41949276,27.0590793 0,32.3919521 0,38.5 C0,47.6126984 7.61115925,55 17,55 C19.8706699,55 22.575153,54.3093971 24.9467087,53.0900278 L24.9467087,53.0900278 C29.0256431,59.5923372 36.9245559,64 46,64 C54.0139139,64 61.1104315,60.5631392 65.4694285,55.2820262 C68.2335642,56.3868544 71.2881924,57 74.5,57 C86.9264069,57 97,47.8218374 97,36.5 C97,26.2120822 88.6822559,17.694192 77.8396256,16.2242664 Z" id="Oval-43"></path>
                </g>
                <g id="moln2-copy-14" transform="translate(0.000000, 410.000000)" sketch:type="MSShapeGroup">
                    <path d="M77.8396256,16.2242664 C76.6974615,8.18849365 69.5933308,2 61,2 C56.9508272,2 53.2323,3.37402457 50.3123586,5.66789627 C45.8912176,2.12891017 40.2043732,0 34,0 C20.0187413,0 8.66551845,10.8107059 8.50179338,24.2063995 C3.41949276,27.0590793 0,32.3919521 0,38.5 C0,47.6126984 7.61115925,55 17,55 C19.8706699,55 22.575153,54.3093971 24.9467087,53.0900278 L24.9467087,53.0900278 C29.0256431,59.5923372 36.9245559,64 46,64 C54.0139139,64 61.1104315,60.5631392 65.4694285,55.2820262 C68.2335642,56.3868544 71.2881924,57 74.5,57 C86.9264069,57 97,47.8218374 97,36.5 C97,26.2120822 88.6822559,17.694192 77.8396256,16.2242664 Z" id="Oval-43"></path>
                </g>
                <g id="moln2-copy-15" transform="translate(320.000000, 410.000000)" sketch:type="MSShapeGroup">
                    <path d="M77.8396256,16.2242664 C76.6974615,8.18849365 69.5933308,2 61,2 C56.9508272,2 53.2323,3.37402457 50.3123586,5.66789627 C45.8912176,2.12891017 40.2043732,0 34,0 C20.0187413,0 8.66551845,10.8107059 8.50179338,24.2063995 C3.41949276,27.0590793 0,32.3919521 0,38.5 C0,47.6126984 7.61115925,55 17,55 C19.8706699,55 22.575153,54.3093971 24.9467087,53.0900278 L24.9467087,53.0900278 C29.0256431,59.5923372 36.9245559,64 46,64 C54.0139139,64 61.1104315,60.5631392 65.4694285,55.2820262 C68.2335642,56.3868544 71.2881924,57 74.5,57 C86.9264069,57 97,47.8218374 97,36.5 C97,26.2120822 88.6822559,17.694192 77.8396256,16.2242664 Z" id="Oval-43"></path>
                </g>
                <g id="moln2-copy-21" transform="translate(170.000000, 500.000000)" sketch:type="MSShapeGroup">
                    <path d="M77.8396256,16.2242664 C76.6974615,8.18849365 69.5933308,2 61,2 C56.9508272,2 53.2323,3.37402457 50.3123586,5.66789627 C45.8912176,2.12891017 40.2043732,0 34,0 C20.0187413,0 8.66551845,10.8107059 8.50179338,24.2063995 C3.41949276,27.0590793 0,32.3919521 0,38.5 C0,47.6126984 7.61115925,55 17,55 C19.8706699,55 22.575153,54.3093971 24.9467087,53.0900278 L24.9467087,53.0900278 C29.0256431,59.5923372 36.9245559,64 46,64 C54.0139139,64 61.1104315,60.5631392 65.4694285,55.2820262 C68.2335642,56.3868544 71.2881924,57 74.5,57 C86.9264069,57 97,47.8218374 97,36.5 C97,26.2120822 88.6822559,17.694192 77.8396256,16.2242664 Z" id="Oval-43"></path>
                </g>
                <g id="moln2-copy-22" transform="translate(470.000000, 520.000000)" sketch:type="MSShapeGroup">
                    <path d="M77.8396256,16.2242664 C76.6974615,8.18849365 69.5933308,2 61,2 C56.9508272,2 53.2323,3.37402457 50.3123586,5.66789627 C45.8912176,2.12891017 40.2043732,0 34,0 C20.0187413,0 8.66551845,10.8107059 8.50179338,24.2063995 C3.41949276,27.0590793 0,32.3919521 0,38.5 C0,47.6126984 7.61115925,55 17,55 C19.8706699,55 22.575153,54.3093971 24.9467087,53.0900278 L24.9467087,53.0900278 C29.0256431,59.5923372 36.9245559,64 46,64 C54.0139139,64 61.1104315,60.5631392 65.4694285,55.2820262 C68.2335642,56.3868544 71.2881924,57 74.5,57 C86.9264069,57 97,47.8218374 97,36.5 C97,26.2120822 88.6822559,17.694192 77.8396256,16.2242664 Z" id="Oval-43"></path>
                </g>
                <g id="moln2-copy-24" transform="translate(300.000000, 600.000000)" sketch:type="MSShapeGroup">
                    <path d="M77.8396256,16.2242664 C76.6974615,8.18849365 69.5933308,2 61,2 C56.9508272,2 53.2323,3.37402457 50.3123586,5.66789627 C45.8912176,2.12891017 40.2043732,0 34,0 C20.0187413,0 8.66551845,10.8107059 8.50179338,24.2063995 C3.41949276,27.0590793 0,32.3919521 0,38.5 C0,47.6126984 7.61115925,55 17,55 C19.8706699,55 22.575153,54.3093971 24.9467087,53.0900278 L24.9467087,53.0900278 C29.0256431,59.5923372 36.9245559,64 46,64 C54.0139139,64 61.1104315,60.5631392 65.4694285,55.2820262 C68.2335642,56.3868544 71.2881924,57 74.5,57 C86.9264069,57 97,47.8218374 97,36.5 C97,26.2120822 88.6822559,17.694192 77.8396256,16.2242664 Z" id="Oval-43"></path>
                </g>
                <g id="moln2-copy-16" transform="translate(450.000000, 330.000000)" sketch:type="MSShapeGroup">
                    <path d="M77.8396256,16.2242664 C76.6974615,8.18849365 69.5933308,2 61,2 C56.9508272,2 53.2323,3.37402457 50.3123586,5.66789627 C45.8912176,2.12891017 40.2043732,0 34,0 C20.0187413,0 8.66551845,10.8107059 8.50179338,24.2063995 C3.41949276,27.0590793 0,32.3919521 0,38.5 C0,47.6126984 7.61115925,55 17,55 C19.8706699,55 22.575153,54.3093971 24.9467087,53.0900278 L24.9467087,53.0900278 C29.0256431,59.5923372 36.9245559,64 46,64 C54.0139139,64 61.1104315,60.5631392 65.4694285,55.2820262 C68.2335642,56.3868544 71.2881924,57 74.5,57 C86.9264069,57 97,47.8218374 97,36.5 C97,26.2120822 88.6822559,17.694192 77.8396256,16.2242664 Z" id="Oval-43"></path>
                </g>
                <g id="moln2-copy-17" transform="translate(650.000000, 450.000000)" sketch:type="MSShapeGroup">
                    <path d="M77.8396256,16.2242664 C76.6974615,8.18849365 69.5933308,2 61,2 C56.9508272,2 53.2323,3.37402457 50.3123586,5.66789627 C45.8912176,2.12891017 40.2043732,0 34,0 C20.0187413,0 8.66551845,10.8107059 8.50179338,24.2063995 C3.41949276,27.0590793 0,32.3919521 0,38.5 C0,47.6126984 7.61115925,55 17,55 C19.8706699,55 22.575153,54.3093971 24.9467087,53.0900278 L24.9467087,53.0900278 C29.0256431,59.5923372 36.9245559,64 46,64 C54.0139139,64 61.1104315,60.5631392 65.4694285,55.2820262 C68.2335642,56.3868544 71.2881924,57 74.5,57 C86.9264069,57 97,47.8218374 97,36.5 C97,26.2120822 88.6822559,17.694192 77.8396256,16.2242664 Z" id="Oval-43"></path>
                </g>
                <g id="moln2-copy-18" transform="translate(690.000000, 310.000000)" sketch:type="MSShapeGroup">
                    <path d="M77.8396256,16.2242664 C76.6974615,8.18849365 69.5933308,2 61,2 C56.9508272,2 53.2323,3.37402457 50.3123586,5.66789627 C45.8912176,2.12891017 40.2043732,0 34,0 C20.0187413,0 8.66551845,10.8107059 8.50179338,24.2063995 C3.41949276,27.0590793 0,32.3919521 0,38.5 C0,47.6126984 7.61115925,55 17,55 C19.8706699,55 22.575153,54.3093971 24.9467087,53.0900278 L24.9467087,53.0900278 C29.0256431,59.5923372 36.9245559,64 46,64 C54.0139139,64 61.1104315,60.5631392 65.4694285,55.2820262 C68.2335642,56.3868544 71.2881924,57 74.5,57 C86.9264069,57 97,47.8218374 97,36.5 C97,26.2120822 88.6822559,17.694192 77.8396256,16.2242664 Z" id="Oval-43"></path>
                </g>
                <g id="moln2-copy-19" transform="translate(840.000000, 390.000000)" sketch:type="MSShapeGroup">
                    <path d="M77.8396256,16.2242664 C76.6974615,8.18849365 69.5933308,2 61,2 C56.9508272,2 53.2323,3.37402457 50.3123586,5.66789627 C45.8912176,2.12891017 40.2043732,0 34,0 C20.0187413,0 8.66551845,10.8107059 8.50179338,24.2063995 C3.41949276,27.0590793 0,32.3919521 0,38.5 C0,47.6126984 7.61115925,55 17,55 C19.8706699,55 22.575153,54.3093971 24.9467087,53.0900278 L24.9467087,53.0900278 C29.0256431,59.5923372 36.9245559,64 46,64 C54.0139139,64 61.1104315,60.5631392 65.4694285,55.2820262 C68.2335642,56.3868544 71.2881924,57 74.5,57 C86.9264069,57 97,47.8218374 97,36.5 C97,26.2120822 88.6822559,17.694192 77.8396256,16.2242664 Z" id="Oval-43"></path>
                </g>
                <g id="moln2-copy-20" transform="translate(940.000000, 520.000000)" sketch:type="MSShapeGroup">
                    <path d="M77.8396256,16.2242664 C76.6974615,8.18849365 69.5933308,2 61,2 C56.9508272,2 53.2323,3.37402457 50.3123586,5.66789627 C45.8912176,2.12891017 40.2043732,0 34,0 C20.0187413,0 8.66551845,10.8107059 8.50179338,24.2063995 C3.41949276,27.0590793 0,32.3919521 0,38.5 C0,47.6126984 7.61115925,55 17,55 C19.8706699,55 22.575153,54.3093971 24.9467087,53.0900278 L24.9467087,53.0900278 C29.0256431,59.5923372 36.9245559,64 46,64 C54.0139139,64 61.1104315,60.5631392 65.4694285,55.2820262 C68.2335642,56.3868544 71.2881924,57 74.5,57 C86.9264069,57 97,47.8218374 97,36.5 C97,26.2120822 88.6822559,17.694192 77.8396256,16.2242664 Z" id="Oval-43"></path>
                </g>
            </g>
            <g id="Group-Copy-3" sketch:type="MSLayerGroup" transform="translate(-5.000000, 1660.000000)">
                <g id="moln2-copy-3" transform="translate(49.000000, 41.000000)" sketch:type="MSShapeGroup">
                    <path d="M77.8396256,16.2242664 C76.6974615,8.18849365 69.5933308,2 61,2 C56.9508272,2 53.2323,3.37402457 50.3123586,5.66789627 C45.8912176,2.12891017 40.2043732,0 34,0 C20.0187413,0 8.66551845,10.8107059 8.50179338,24.2063995 C3.41949276,27.0590793 0,32.3919521 0,38.5 C0,47.6126984 7.61115925,55 17,55 C19.8706699,55 22.575153,54.3093971 24.9467087,53.0900278 L24.9467087,53.0900278 C29.0256431,59.5923372 36.9245559,64 46,64 C54.0139139,64 61.1104315,60.5631392 65.4694285,55.2820262 C68.2335642,56.3868544 71.2881924,57 74.5,57 C86.9264069,57 97,47.8218374 97,36.5 C97,26.2120822 88.6822559,17.694192 77.8396256,16.2242664 Z" id="Oval-43"></path>
                </g>
                <g id="moln2-copy-4" transform="translate(179.000000, 121.000000)" sketch:type="MSShapeGroup">
                    <path d="M77.8396256,16.2242664 C76.6974615,8.18849365 69.5933308,2 61,2 C56.9508272,2 53.2323,3.37402457 50.3123586,5.66789627 C45.8912176,2.12891017 40.2043732,0 34,0 C20.0187413,0 8.66551845,10.8107059 8.50179338,24.2063995 C3.41949276,27.0590793 0,32.3919521 0,38.5 C0,47.6126984 7.61115925,55 17,55 C19.8706699,55 22.575153,54.3093971 24.9467087,53.0900278 L24.9467087,53.0900278 C29.0256431,59.5923372 36.9245559,64 46,64 C54.0139139,64 61.1104315,60.5631392 65.4694285,55.2820262 C68.2335642,56.3868544 71.2881924,57 74.5,57 C86.9264069,57 97,47.8218374 97,36.5 C97,26.2120822 88.6822559,17.694192 77.8396256,16.2242664 Z" id="Oval-43"></path>
                </g>
                <g id="moln2-copy-5" transform="translate(329.000000, 231.000000)" sketch:type="MSShapeGroup">
                    <path d="M77.8396256,16.2242664 C76.6974615,8.18849365 69.5933308,2 61,2 C56.9508272,2 53.2323,3.37402457 50.3123586,5.66789627 C45.8912176,2.12891017 40.2043732,0 34,0 C20.0187413,0 8.66551845,10.8107059 8.50179338,24.2063995 C3.41949276,27.0590793 0,32.3919521 0,38.5 C0,47.6126984 7.61115925,55 17,55 C19.8706699,55 22.575153,54.3093971 24.9467087,53.0900278 L24.9467087,53.0900278 C29.0256431,59.5923372 36.9245559,64 46,64 C54.0139139,64 61.1104315,60.5631392 65.4694285,55.2820262 C68.2335642,56.3868544 71.2881924,57 74.5,57 C86.9264069,57 97,47.8218374 97,36.5 C97,26.2120822 88.6822559,17.694192 77.8396256,16.2242664 Z" id="Oval-43"></path>
                </g>
                <g id="moln2-copy-6" transform="translate(379.000000, 91.000000)" sketch:type="MSShapeGroup">
                    <path d="M77.8396256,16.2242664 C76.6974615,8.18849365 69.5933308,2 61,2 C56.9508272,2 53.2323,3.37402457 50.3123586,5.66789627 C45.8912176,2.12891017 40.2043732,0 34,0 C20.0187413,0 8.66551845,10.8107059 8.50179338,24.2063995 C3.41949276,27.0590793 0,32.3919521 0,38.5 C0,47.6126984 7.61115925,55 17,55 C19.8706699,55 22.575153,54.3093971 24.9467087,53.0900278 L24.9467087,53.0900278 C29.0256431,59.5923372 36.9245559,64 46,64 C54.0139139,64 61.1104315,60.5631392 65.4694285,55.2820262 C68.2335642,56.3868544 71.2881924,57 74.5,57 C86.9264069,57 97,47.8218374 97,36.5 C97,26.2120822 88.6822559,17.694192 77.8396256,16.2242664 Z" id="Oval-43"></path>
                </g>
                <g id="moln2-copy-7" transform="translate(509.000000, 51.000000)" sketch:type="MSShapeGroup">
                    <path d="M77.8396256,16.2242664 C76.6974615,8.18849365 69.5933308,2 61,2 C56.9508272,2 53.2323,3.37402457 50.3123586,5.66789627 C45.8912176,2.12891017 40.2043732,0 34,0 C20.0187413,0 8.66551845,10.8107059 8.50179338,24.2063995 C3.41949276,27.0590793 0,32.3919521 0,38.5 C0,47.6126984 7.61115925,55 17,55 C19.8706699,55 22.575153,54.3093971 24.9467087,53.0900278 L24.9467087,53.0900278 C29.0256431,59.5923372 36.9245559,64 46,64 C54.0139139,64 61.1104315,60.5631392 65.4694285,55.2820262 C68.2335642,56.3868544 71.2881924,57 74.5,57 C86.9264069,57 97,47.8218374 97,36.5 C97,26.2120822 88.6822559,17.694192 77.8396256,16.2242664 Z" id="Oval-43"></path>
                </g>
                <g id="moln2-copy-8" transform="translate(569.000000, 191.000000)" sketch:type="MSShapeGroup">
                    <path d="M77.8396256,16.2242664 C76.6974615,8.18849365 69.5933308,2 61,2 C56.9508272,2 53.2323,3.37402457 50.3123586,5.66789627 C45.8912176,2.12891017 40.2043732,0 34,0 C20.0187413,0 8.66551845,10.8107059 8.50179338,24.2063995 C3.41949276,27.0590793 0,32.3919521 0,38.5 C0,47.6126984 7.61115925,55 17,55 C19.8706699,55 22.575153,54.3093971 24.9467087,53.0900278 L24.9467087,53.0900278 C29.0256431,59.5923372 36.9245559,64 46,64 C54.0139139,64 61.1104315,60.5631392 65.4694285,55.2820262 C68.2335642,56.3868544 71.2881924,57 74.5,57 C86.9264069,57 97,47.8218374 97,36.5 C97,26.2120822 88.6822559,17.694192 77.8396256,16.2242664 Z" id="Oval-43"></path>
                </g>
                <g id="moln2-copy-9" transform="translate(700.000000, 120.000000)" sketch:type="MSShapeGroup">
                    <path d="M77.8396256,16.2242664 C76.6974615,8.18849365 69.5933308,2 61,2 C56.9508272,2 53.2323,3.37402457 50.3123586,5.66789627 C45.8912176,2.12891017 40.2043732,0 34,0 C20.0187413,0 8.66551845,10.8107059 8.50179338,24.2063995 C3.41949276,27.0590793 0,32.3919521 0,38.5 C0,47.6126984 7.61115925,55 17,55 C19.8706699,55 22.575153,54.3093971 24.9467087,53.0900278 L24.9467087,53.0900278 C29.0256431,59.5923372 36.9245559,64 46,64 C54.0139139,64 61.1104315,60.5631392 65.4694285,55.2820262 C68.2335642,56.3868544 71.2881924,57 74.5,57 C86.9264069,57 97,47.8218374 97,36.5 C97,26.2120822 88.6822559,17.694192 77.8396256,16.2242664 Z" id="Oval-43"></path>
                </g>
                <g id="moln2-copy-23" transform="translate(750.000000, 0.000000)" sketch:type="MSShapeGroup">
                    <path d="M77.8396256,16.2242664 C76.6974615,8.18849365 69.5933308,2 61,2 C56.9508272,2 53.2323,3.37402457 50.3123586,5.66789627 C45.8912176,2.12891017 40.2043732,0 34,0 C20.0187413,0 8.66551845,10.8107059 8.50179338,24.2063995 C3.41949276,27.0590793 0,32.3919521 0,38.5 C0,47.6126984 7.61115925,55 17,55 C19.8706699,55 22.575153,54.3093971 24.9467087,53.0900278 L24.9467087,53.0900278 C29.0256431,59.5923372 36.9245559,64 46,64 C54.0139139,64 61.1104315,60.5631392 65.4694285,55.2820262 C68.2335642,56.3868544 71.2881924,57 74.5,57 C86.9264069,57 97,47.8218374 97,36.5 C97,26.2120822 88.6822559,17.694192 77.8396256,16.2242664 Z" id="Oval-43"></path>
                </g>
                <g id="moln2-copy-11" transform="translate(890.000000, 210.000000)" sketch:type="MSShapeGroup">
                    <path d="M77.8396256,16.2242664 C76.6974615,8.18849365 69.5933308,2 61,2 C56.9508272,2 53.2323,3.37402457 50.3123586,5.66789627 C45.8912176,2.12891017 40.2043732,0 34,0 C20.0187413,0 8.66551845,10.8107059 8.50179338,24.2063995 C3.41949276,27.0590793 0,32.3919521 0,38.5 C0,47.6126984 7.61115925,55 17,55 C19.8706699,55 22.575153,54.3093971 24.9467087,53.0900278 L24.9467087,53.0900278 C29.0256431,59.5923372 36.9245559,64 46,64 C54.0139139,64 61.1104315,60.5631392 65.4694285,55.2820262 C68.2335642,56.3868544 71.2881924,57 74.5,57 C86.9264069,57 97,47.8218374 97,36.5 C97,26.2120822 88.6822559,17.694192 77.8396256,16.2242664 Z" id="Oval-43"></path>
                </g>
                <g id="moln2-copy-12" transform="translate(80.000000, 210.000000)" sketch:type="MSShapeGroup">
                    <path d="M77.8396256,16.2242664 C76.6974615,8.18849365 69.5933308,2 61,2 C56.9508272,2 53.2323,3.37402457 50.3123586,5.66789627 C45.8912176,2.12891017 40.2043732,0 34,0 C20.0187413,0 8.66551845,10.8107059 8.50179338,24.2063995 C3.41949276,27.0590793 0,32.3919521 0,38.5 C0,47.6126984 7.61115925,55 17,55 C19.8706699,55 22.575153,54.3093971 24.9467087,53.0900278 L24.9467087,53.0900278 C29.0256431,59.5923372 36.9245559,64 46,64 C54.0139139,64 61.1104315,60.5631392 65.4694285,55.2820262 C68.2335642,56.3868544 71.2881924,57 74.5,57 C86.9264069,57 97,47.8218374 97,36.5 C97,26.2120822 88.6822559,17.694192 77.8396256,16.2242664 Z" id="Oval-43"></path>
                </g>
            </g>
        </g>
    </g>
</svg>