<?xml version="1.0" encoding="UTF-8" standalone="no"?>
<svg width="50px" height="50px" viewBox="0 0 50 50" version="1.1" xmlns="http://www.w3.org/2000/svg" xmlns:xlink="http://www.w3.org/1999/xlink" xmlns:sketch="http://www.bohemiancoding.com/sketch/ns">
    <!-- Generator: Sketch 3.3.3 (12072) - http://www.bohemiancoding.com/sketch -->
    <title>dribbble_L</title>
    <desc>Created with Sketch.</desc>
    <defs></defs>
    <g id="iconer" stroke="none" stroke-width="1" fill="none" fill-rule="evenodd" sketch:type="MSPage">
        <g id="Artboard-3" sketch:type="MSArtboardGroup" transform="translate(-11.000000, -84.000000)" fill="#FFFFFF">
            <g id="dribbble_L" sketch:type="MSLayerGroup" transform="translate(11.000000, 84.000000)">
                <g id="Page-1" sketch:type="MSShapeGroup">
                    <g id="Artboard-1">
                        <g id="line-icons">
                            <g id="row-4-line-icons">
                                <path d="M25,50 C38.807119,50 50,38.8071194 50,25 C50,11.1928806 38.807119,0 25,0 C11.192881,0 0,11.1928806 0,25 C0,38.8071194 11.192881,50 25,50 L25,50 Z M25,48 C37.70255,48 48,37.7025499 48,25 C48,12.2974501 37.70255,2 25,2 C12.29745,2 2,12.2974501 2,25 C2,37.7025499 12.29745,48 25,48 L25,48 Z M36.228293,15.9016487 C38.260232,18.4622222 39.49044,21.7235842 39.522502,25.2749343 C39.041575,25.1699881 34.218595,24.1610514 29.364664,24.7907288 C29.262178,24.5330466 29.157653,24.2742174 29.050162,24.0140502 C28.747336,23.2803823 28.4219,22.5514934 28.082564,21.8346476 C33.47617,19.5632975 35.920834,16.3308005 36.228293,15.9016487 L36.228293,15.9016487 Z M24.936247,10.3698925 C28.642811,10.3698925 32.030425,11.8041577 34.606672,14.1617204 C34.344247,14.5470968 32.148108,17.5916846 26.960958,19.5971326 C24.570409,15.0668578 21.920958,11.3451852 21.517683,10.7883393 C22.614641,10.5155556 23.759228,10.3698925 24.936247,10.3698925 L24.936247,10.3698925 Z M18.734054,11.7997611 C19.11861,12.3437993 21.725436,16.0698686 24.142672,20.5018877 C17.318888,22.3712306 11.308695,22.3442772 10.656154,22.3352927 C11.602069,17.6660454 14.652757,13.7853286 18.734054,11.7997611 L18.734054,11.7997611 Z M10.347954,25.4171565 C10.347954,25.2632736 10.350919,25.1101553 10.355367,24.9574194 C10.993822,24.9708005 18.062981,25.0648507 25.348232,22.8160573 C25.765961,23.6590681 26.164788,24.5146953 26.530996,25.3695579 C26.338069,25.4255675 26.146069,25.4852091 25.956108,25.5486738 C18.43234,28.0570609 14.428695,34.8946237 14.098255,35.4780406 C11.768309,32.8104182 10.347954,29.281816 10.347954,25.4171565 L10.347954,25.4171565 Z M24.936247,40.4642294 C21.563645,40.4642294 18.45532,39.2773238 15.981931,37.2879331 C16.244355,36.7341458 19.198116,30.8485544 27.426317,27.891135 C27.458378,27.8796655 27.49044,27.8687694 27.522502,27.8576822 C29.570564,33.3473835 30.417514,37.9481959 30.634533,39.2683393 C28.882996,40.037945 26.95688,40.4642294 24.936247,40.4642294 L24.936247,40.4642294 Z M33.087166,37.8908483 C32.937606,36.9753883 32.161081,32.5707049 30.253127,27.1624373 C34.824618,26.4075508 38.840865,27.6432019 39.339954,27.8054958 C38.689637,31.9924492 36.359876,35.608411 33.087166,37.8908483 L33.087166,37.8908483 Z" id="dribbble_L"></path>
                            </g>
                        </g>
                    </g>
                </g>
            </g>
        </g>
    </g>
</svg>