<?xml version="1.0" encoding="UTF-8" standalone="no"?>
<svg width="50px" height="50px" viewBox="0 0 50 50" version="1.1" xmlns="http://www.w3.org/2000/svg" xmlns:xlink="http://www.w3.org/1999/xlink" xmlns:sketch="http://www.bohemiancoding.com/sketch/ns">
    <!-- Generator: Sketch 3.3.3 (12072) - http://www.bohemiancoding.com/sketch -->
    <title>linkedin_L</title>
    <desc>Created with Sketch.</desc>
    <defs></defs>
    <g id="iconer" stroke="none" stroke-width="1" fill="none" fill-rule="evenodd" sketch:type="MSPage">
        <g id="Artboard-3" sketch:type="MSArtboardGroup" transform="translate(-111.000000, -84.000000)" fill="#FFFFFF">
            <g id="linkedin_L" sketch:type="MSLayerGroup" transform="translate(111.000000, 84.000000)">
                <g id="Page-1" sketch:type="MSShapeGroup">
                    <g id="Artboard-1">
                        <g id="line-icons">
                            <g id="row-3-line-icons">
                                <path d="M25,50 C38.807119,50 50,38.8071194 50,25 C50,11.1928806 38.807119,0 25,0 C11.192881,0 0,11.1928806 0,25 C0,38.8071194 11.192881,50 25,50 L25,50 Z M25,48 C37.70255,48 48,37.7025499 48,25 C48,12.2974501 37.70255,2 25,2 C12.29745,2 2,12.2974501 2,25 C2,37.7025499 12.29745,48 25,48 L25,48 Z M17.856704,37 L17.856704,18.1923077 L12.195419,18.1923077 L12.195419,37 L17.856704,37 L17.856704,37 Z M15.026062,10 C13.201042,10 12.009193,11.2692308 12.046438,12.9615385 C12.009193,14.5769231 13.201042,15.8846154 14.988817,15.8846154 C16.851081,15.8846154 18.042931,14.5769231 18.042931,12.9615385 C18.005685,11.2692308 16.851081,10 15.026062,10 L15.026062,10 Z M22.40063,37 L28.061915,37 L28.061915,26.1538462 C28.061915,25.6153846 28.136406,25.0384615 28.285387,24.6923077 C28.65784,23.6153846 29.588972,22.5 31.153275,22.5 C33.201766,22.5 34.021163,24.1538462 34.021163,26.5769231 L34.021163,37 L39.682447,37 L39.682447,25.8461538 C39.682447,20.3076923 36.88905,17.7692308 33.164521,17.7692308 C30.147652,17.7692308 28.285387,19.5769231 27.540481,20.7692308 L27.428745,20.7692308 L27.168028,18.1923077 L22.251649,18.1923077 C22.32614,19.8461538 22.40063,21.8461538 22.40063,24.1923077 L22.40063,37 L22.40063,37 Z" id="linkedin_L"></path>
                            </g>
                        </g>
                    </g>
                </g>
            </g>
        </g>
    </g>
</svg>