<?xml version="1.0" encoding="UTF-8" standalone="no"?>
<svg width="247px" height="188px" viewBox="0 0 247 188" version="1.1" xmlns="http://www.w3.org/2000/svg" xmlns:xlink="http://www.w3.org/1999/xlink" xmlns:sketch="http://www.bohemiancoding.com/sketch/ns">
    <!-- Generator: Sketch 3.3.3 (12072) - http://www.bohemiancoding.com/sketch -->
    <title>Artboard 1</title>
    <desc>Created with Sketch.</desc>
    <defs></defs>
    <g id="iconer" stroke="none" stroke-width="1" fill="none" fill-rule="evenodd" sketch:type="MSPage">
        <g id="Artboard-1" sketch:type="MSArtboardGroup" fill="#FFFFFF">
            <path d="M38.24,63.512 L41.804,63.512 L51.092,84.896 L60.38,63.512 L63.764,63.512 L63.764,89 L61.388,89 L61.388,66.536 L61.316,66.536 L51.596,89 L50.552,89 L40.688,66.536 L40.616,66.536 L40.616,89 L38.24,89 L38.24,63.512 Z M80.7080001,82.016 C80.7080001,82.8320041 80.714,83.5639968 80.7260001,84.212 C80.7380002,84.8600032 80.756,85.4599972 80.7800001,86.012 C80.8040002,86.5640028 80.8339999,87.0799976 80.8700001,87.56 C80.9060003,88.0400024 80.9599997,88.5199976 81.0320001,89 L79.0160001,89 C78.8719994,88.1839959 78.8000001,87.2840049 78.8000001,86.3 L78.7280001,86.3 C78.103997,87.3800054 77.3300047,88.1719975 76.4060001,88.676 C75.4819955,89.1800025 74.3120072,89.432 72.8960001,89.432 C72.1759965,89.432 71.4680036,89.3420009 70.7720001,89.162 C70.0759966,88.9819991 69.4520029,88.694002 68.9000001,88.298 C68.3479973,87.901998 67.8980018,87.3920031 67.5500001,86.768 C67.2019984,86.1439969 67.0280001,85.3880044 67.0280001,84.5 C67.0280001,83.2279936 67.3519969,82.2200037 68.0000001,81.476 C68.6480033,80.7319963 69.4459954,80.1740019 70.3940001,79.802 C71.3420048,79.4299981 72.3499948,79.1900005 73.4180001,79.082 C74.4860054,78.9739995 75.427996,78.92 76.2440001,78.92 L78.7640001,78.92 L78.7640001,77.912 C78.7640001,76.4719928 78.3200045,75.4400031 77.4320001,74.816 C76.5439957,74.1919969 75.4280068,73.88 74.0840001,73.88 C72.1639905,73.88 70.4720074,74.5039938 69.0080001,75.752 L67.7480001,74.276 C68.5400041,73.5079962 69.5239942,72.926002 70.7000001,72.53 C71.876006,72.133998 73.0039947,71.936 74.0840001,71.936 C76.1000102,71.936 77.7079941,72.4099953 78.9080001,73.358 C80.1080061,74.3060047 80.7080001,75.8359894 80.7080001,77.948 L80.7080001,82.016 Z M76.3880001,80.648 C75.4759955,80.648 74.5940044,80.7079994 73.7420001,80.828 C72.8899958,80.9480006 72.1220035,81.1519986 71.4380001,81.44 C70.7539967,81.7280014 70.2080021,82.1119976 69.8000001,82.592 C69.3919981,83.0720024 69.1880001,83.6719964 69.1880001,84.392 C69.1880001,84.8960025 69.301999,85.345998 69.5300001,85.742 C69.7580012,86.138002 70.0519983,86.4619987 70.4120001,86.714 C70.7720019,86.9660013 71.1739979,87.1579993 71.6180001,87.29 C72.0620023,87.4220007 72.5119978,87.488 72.9680001,87.488 C74.1200059,87.488 75.0679964,87.3200017 75.8120001,86.984 C76.5560038,86.6479983 77.1499979,86.2100027 77.5940001,85.67 C78.0380023,85.1299973 78.3439993,84.5180034 78.5120001,83.834 C78.6800009,83.1499966 78.7640001,82.4600035 78.7640001,81.764 L78.7640001,80.648 L76.3880001,80.648 Z M98.9120002,86.084 L98.8400002,86.084 C98.5039985,86.6600029 98.0840027,87.1579979 97.5800002,87.578 C97.0759977,87.9980021 96.5300031,88.3459986 95.9420002,88.622 C95.3539973,88.8980014 94.7360034,89.1019993 94.0880002,89.234 C93.439997,89.3660007 92.8040033,89.432 92.1800002,89.432 C90.9079938,89.432 89.7320056,89.2160022 88.6520002,88.784 C87.5719948,88.3519978 86.648004,87.7460039 85.8800002,86.966 C85.1119964,86.1859961 84.5120024,85.2620053 84.0800002,84.194 C83.647998,83.1259947 83.4320002,81.9560064 83.4320002,80.684 C83.4320002,79.4119936 83.647998,78.2420053 84.0800002,77.174 C84.5120024,76.1059947 85.1119964,75.1820039 85.8800002,74.402 C86.648004,73.6219961 87.5719948,73.0160022 88.6520002,72.584 C89.7320056,72.1519978 90.9079938,71.936 92.1800002,71.936 C92.8040033,71.936 93.439997,72.0019993 94.0880002,72.134 C94.7360034,72.2660007 95.3539973,72.4699986 95.9420002,72.746 C96.5300031,73.0220014 97.0759977,73.3699979 97.5800002,73.79 C98.0840027,74.2100021 98.5039985,74.7079971 98.8400002,75.284 L98.9120002,75.284 L98.9120002,61.784 L101.072,61.784 L101.072,89 L98.9120002,89 L98.9120002,86.084 Z M99.1280002,80.684 C99.1280002,79.7479953 98.948002,78.8660041 98.5880002,78.038 C98.2279984,77.2099959 97.7360033,76.4900031 97.1120002,75.878 C96.4879971,75.2659969 95.7560044,74.7800018 94.9160002,74.42 C94.075996,74.0599982 93.1640051,73.88 92.1800002,73.88 C91.1719952,73.88 90.2600043,74.0599982 89.4440002,74.42 C88.6279961,74.7800018 87.9320031,75.2659969 87.3560002,75.878 C86.7799973,76.4900031 86.3420017,77.2099959 86.0420002,78.038 C85.7419987,78.8660041 85.5920002,79.7479953 85.5920002,80.684 C85.5920002,81.6200047 85.7419987,82.5019959 86.0420002,83.33 C86.3420017,84.1580041 86.7799973,84.8779969 87.3560002,85.49 C87.9320031,86.1020031 88.6279961,86.5879982 89.4440002,86.948 C90.2600043,87.3080018 91.1719952,87.488 92.1800002,87.488 C93.1640051,87.488 94.075996,87.3080018 94.9160002,86.948 C95.7560044,86.5879982 96.4879971,86.1020031 97.1120002,85.49 C97.7360033,84.8779969 98.2279984,84.1580041 98.5880002,83.33 C98.948002,82.5019959 99.1280002,81.6200047 99.1280002,80.684 L99.1280002,80.684 Z M118.952,85.868 C118.111996,87.1400064 117.074006,88.0519972 115.838,88.604 C114.601994,89.1560028 113.240008,89.432 111.752,89.432 C110.479994,89.432 109.328005,89.2160022 108.296,88.784 C107.263995,88.3519978 106.376004,87.7460039 105.632,86.966 C104.887997,86.1859961 104.318002,85.2620053 103.922,84.194 C103.525998,83.1259947 103.328,81.9440065 103.328,80.648 C103.328,79.3999938 103.531998,78.2480053 103.94,77.192 C104.348002,76.1359947 104.923997,75.2180039 105.668,74.438 C106.412004,73.6579961 107.287995,73.0460022 108.296,72.602 C109.304005,72.1579978 110.419994,71.936 111.644,71.936 C112.916007,71.936 114.037995,72.1579978 115.01,72.602 C115.982005,73.0460022 116.797997,73.6339963 117.458,74.366 C118.118004,75.0980037 118.615999,75.9319953 118.952,76.868 C119.288002,77.8040047 119.456,78.7519952 119.456,79.712 L119.456,81.224 L105.488,81.224 C105.488,81.6800023 105.577999,82.2619965 105.758,82.97 C105.938001,83.6780035 106.267998,84.3679966 106.748,85.04 C107.228003,85.7120034 107.869996,86.2879976 108.674,86.768 C109.478004,87.2480024 110.515994,87.488 111.788,87.488 C112.892006,87.488 113.959995,87.2240026 114.992,86.696 C116.024005,86.1679974 116.815998,85.4480046 117.368,84.536 L118.952,85.868 Z M117.296,79.28 C117.296,78.5359963 117.146002,77.8400032 116.846,77.192 C116.545999,76.5439968 116.138003,75.9740025 115.622,75.482 C115.105998,74.9899975 114.494004,74.6000014 113.786,74.312 C113.077997,74.0239986 112.328004,73.88 111.536,73.88 C110.359994,73.88 109.382004,74.1199976 108.602,74.6 C107.821996,75.0800024 107.204003,75.6319969 106.748,76.256 C106.291998,76.8800031 105.968001,77.4859971 105.776,78.074 C105.583999,78.6620029 105.488,79.0639989 105.488,79.28 L117.296,79.28 Z M130.052,63.512 L137.396,63.512 C138.356005,63.512 139.327996,63.5899992 140.312,63.746 C141.296005,63.9020008 142.177997,64.2259975 142.958,64.718 C143.738004,65.2100025 144.373998,65.8939956 144.866,66.77 C145.358003,67.6460044 145.604,68.8039928 145.604,70.244 C145.604,71.5400065 145.220004,72.6679952 144.452,73.628 C143.683997,74.5880048 142.544008,75.2239984 141.032,75.536 L141.032,75.608 C141.872005,75.6800004 142.639997,75.8779984 143.336,76.202 C144.032004,76.5260016 144.631998,76.9579973 145.136,77.498 C145.640003,78.0380027 146.029999,78.6799963 146.306,79.424 C146.582002,80.1680037 146.72,80.9839956 146.72,81.872 C146.72,83.3360073 146.438003,84.5299954 145.874,85.454 C145.309998,86.3780046 144.602005,87.1039974 143.75,87.632 C142.897996,88.1600026 141.974005,88.519999 140.978,88.712 C139.981995,88.904001 139.052005,89 138.188,89 L130.052,89 L130.052,63.512 Z M132.428,74.528 L137.36,74.528 C138.584007,74.528 139.579997,74.3780015 140.348,74.078 C141.116004,73.7779985 141.715998,73.4120022 142.148,72.98 C142.580003,72.5479978 142.868,72.0860025 143.012,71.594 C143.156001,71.1019975 143.228,70.652002 143.228,70.244 C143.228,69.3559956 143.078002,68.6180029 142.778,68.03 C142.477999,67.4419971 142.076003,66.9740017 141.572,66.626 C141.067998,66.2779983 140.480004,66.0320007 139.808,65.888 C139.135997,65.7439993 138.428004,65.672 137.684,65.672 L132.428,65.672 L132.428,74.528 Z M132.428,86.84 L137.864,86.84 C139.256007,86.84 140.377996,86.6720017 141.23,86.336 C142.082005,85.9999983 142.735998,85.5800025 143.192,85.076 C143.648003,84.5719975 143.954,84.0380028 144.11,83.474 C144.266001,82.9099972 144.344,82.4000023 144.344,81.944 C144.344,81.0079953 144.164002,80.2040034 143.804,79.532 C143.443999,78.8599966 142.976003,78.3140021 142.4,77.894 C141.823998,77.4739979 141.170004,77.168001 140.438,76.976 C139.705997,76.783999 138.968004,76.688 138.224,76.688 L132.428,76.688 L132.428,86.84 Z M154.700001,94.148 C154.291999,95.2280054 153.728004,96.0799969 153.008001,96.704 C152.287997,97.3280031 151.328007,97.64 150.128001,97.64 C149.767999,97.64 149.408002,97.6100003 149.048001,97.55 C148.687999,97.4899997 148.340002,97.4120005 148.004001,97.316 L148.220001,95.3 C148.532002,95.3960005 148.849999,95.4859996 149.174001,95.57 C149.498002,95.6540004 149.827999,95.696 150.164001,95.696 C150.548002,95.696 150.889999,95.6120008 151.190001,95.444 C151.490002,95.2759992 151.747999,95.0600013 151.964001,94.796 C152.180002,94.5319987 152.366,94.2380016 152.522001,93.914 C152.678001,93.5899984 152.816,93.2600017 152.936001,92.924 L154.448001,89.072 L147.680001,72.368 L150.092001,72.368 L155.600001,86.372 L160.964001,72.368 L163.268001,72.368 L154.700001,94.148 Z M45.7520001,92.512 L61.0160001,92.512 L61.0160001,94.672 L48.1280001,94.672 L48.1280001,103.744 L60.1160001,103.744 L60.1160001,105.904 L48.1280001,105.904 L48.1280001,118 L45.7520001,118 L45.7520001,92.512 Z M62.1200002,109.684 C62.1200002,108.411994 62.335998,107.242005 62.7680002,106.174 C63.2000024,105.105995 63.7999964,104.182004 64.5680002,103.402 C65.336004,102.621996 66.2599948,102.016002 67.3400002,101.584 C68.4200056,101.151998 69.5959938,100.936 70.8680002,100.936 C72.1400066,100.936 73.3099949,101.151998 74.3780002,101.584 C75.4460055,102.016002 76.3699963,102.621996 77.1500002,103.402 C77.9300041,104.182004 78.535998,105.105995 78.9680002,106.174 C79.4000024,107.242005 79.6160002,108.411994 79.6160002,109.684 C79.6160002,110.956006 79.4000024,112.125995 78.9680002,113.194 C78.535998,114.262005 77.9300041,115.185996 77.1500002,115.966 C76.3699963,116.746004 75.4460055,117.351998 74.3780002,117.784 C73.3099949,118.216002 72.1400066,118.432 70.8680002,118.432 C69.5959938,118.432 68.4200056,118.216002 67.3400002,117.784 C66.2599948,117.351998 65.336004,116.746004 64.5680002,115.966 C63.7999964,115.185996 63.2000024,114.262005 62.7680002,113.194 C62.335998,112.125995 62.1200002,110.956006 62.1200002,109.684 L62.1200002,109.684 Z M64.2800002,109.684 C64.2800002,110.620005 64.4299987,111.501996 64.7300002,112.33 C65.0300017,113.158004 65.4679973,113.877997 66.0440002,114.49 C66.6200031,115.102003 67.3159961,115.587998 68.1320002,115.948 C68.9480043,116.308002 69.8599952,116.488 70.8680002,116.488 C71.8760052,116.488 72.7879961,116.308002 73.6040002,115.948 C74.4200043,115.587998 75.1159973,115.102003 75.6920002,114.49 C76.2680031,113.877997 76.7059987,113.158004 77.0060002,112.33 C77.3060017,111.501996 77.4560002,110.620005 77.4560002,109.684 C77.4560002,108.747995 77.3060017,107.866004 77.0060002,107.038 C76.7059987,106.209996 76.2680031,105.490003 75.6920002,104.878 C75.1159973,104.265997 74.4200043,103.780002 73.6040002,103.42 C72.7879961,103.059998 71.8760052,102.88 70.8680002,102.88 C69.8599952,102.88 68.9480043,103.059998 68.1320002,103.42 C67.3159961,103.780002 66.6200031,104.265997 66.0440002,104.878 C65.4679973,105.490003 65.0300017,106.209996 64.7300002,107.038 C64.4299987,107.866004 64.2800002,108.747995 64.2800002,109.684 L64.2800002,109.684 Z M82.3400003,106.048 C82.3400003,105.735998 82.3280004,105.358002 82.3040003,104.914 C82.2800002,104.469998 82.2620003,104.020002 82.2500003,103.564 C82.2380002,103.107998 82.2200004,102.682002 82.1960003,102.286 C82.1720002,101.889998 82.1600003,101.584001 82.1600003,101.368 L84.3200003,101.368 C84.3440004,101.992003 84.3620002,102.591997 84.3740003,103.168 C84.3860003,103.744003 84.416,104.115999 84.4640003,104.284 C85.016003,103.299995 85.723996,102.496003 86.5880003,101.872 C87.4520046,101.247997 88.507994,100.936 89.7560003,100.936 C89.9720014,100.936 90.1819993,100.954 90.3860003,100.99 C90.5900013,101.026 90.7999992,101.068 91.0160003,101.116 L90.7640003,103.24 C90.4759988,103.144 90.2000016,103.096 89.9360003,103.096 C88.9999956,103.096 88.1900037,103.245998 87.5060003,103.546 C86.8219969,103.846001 86.2580025,104.259997 85.8140003,104.788 C85.3699981,105.316003 85.0400014,105.933996 84.8240003,106.642 C84.6079992,107.350004 84.5000003,108.111996 84.5000003,108.928 L84.5000003,118 L82.3400003,118 L82.3400003,106.048 Z M92.2640004,113.752 C92.7200027,114.640004 93.3919959,115.317998 94.2800004,115.786 C95.1680048,116.254002 96.1039955,116.488 97.0880004,116.488 C97.5440027,116.488 97.9999981,116.416001 98.4560004,116.272 C98.9120027,116.127999 99.3199986,115.924001 99.6800004,115.66 C100.040002,115.395999 100.333999,115.078002 100.562,114.706 C100.790002,114.333998 100.904,113.908002 100.904,113.428 C100.904,112.659996 100.658003,112.084002 100.166,111.7 C99.6739979,111.315998 99.068004,111.016001 98.3480004,110.8 C97.6279968,110.583999 96.8360047,110.398001 95.9720004,110.242 C95.1079961,110.085999 94.316004,109.846002 93.5960004,109.522 C92.8759968,109.197998 92.2700028,108.748003 91.7780004,108.172 C91.2859979,107.595997 91.0400004,106.780005 91.0400004,105.724 C91.0400004,104.907996 91.2079987,104.200003 91.5440004,103.6 C91.8800021,102.999997 92.3179977,102.502002 92.8580004,102.106 C93.3980031,101.709998 94.003997,101.416001 94.6760004,101.224 C95.3480037,101.031999 96.0319969,100.936 96.7280004,100.936 C98.0960072,100.936 99.2779954,101.187997 100.274,101.692 C101.270005,102.196003 102.043998,102.987995 102.596,104.068 L100.652,105.22 C100.243998,104.451996 99.7340034,103.870002 99.1220004,103.474 C98.5099973,103.077998 97.7120053,102.88 96.7280004,102.88 C96.3439985,102.88 95.9420025,102.939999 95.5220004,103.06 C95.1019983,103.180001 94.7240021,103.347999 94.3880004,103.564 C94.0519987,103.780001 93.7700015,104.055998 93.5420004,104.392 C93.3139992,104.728002 93.2000004,105.111998 93.2000004,105.544 C93.2000004,106.288004 93.4459979,106.839998 93.9380004,107.2 C94.4300028,107.560002 95.0359968,107.841999 95.7560004,108.046 C96.476004,108.250001 97.2679961,108.423999 98.1320004,108.568 C98.9960047,108.712001 99.7879968,108.945998 100.508,109.27 C101.228004,109.594002 101.833998,110.061997 102.326,110.674 C102.818003,111.286003 103.064,112.155994 103.064,113.284 C103.064,114.148004 102.902002,114.897997 102.578,115.534 C102.253999,116.170003 101.810003,116.703998 101.246,117.136 C100.681998,117.568002 100.040004,117.891999 99.3200004,118.108 C98.5999968,118.324001 97.8440043,118.432 97.0520004,118.432 C95.6119932,118.432 94.2980063,118.156003 93.1100004,117.604 C91.9219944,117.051997 91.0040036,116.200006 90.3560004,115.048 L92.2640004,113.752 Z M105.464,106.048 C105.464,105.735998 105.452001,105.358002 105.428,104.914 C105.404,104.469998 105.386001,104.020002 105.374,103.564 C105.362,103.107998 105.344001,102.682002 105.32,102.286 C105.296,101.889998 105.284,101.584001 105.284,101.368 L107.444,101.368 C107.468001,101.992003 107.486,102.591997 107.498,103.168 C107.510001,103.744003 107.54,104.115999 107.588,104.284 L107.696,104.284 C108.128003,103.371995 108.847995,102.586003 109.856,101.926 C110.864006,101.265997 112.039994,100.936 113.384,100.936 C114.488006,100.936 115.495996,101.217997 116.408,101.782 C117.320005,102.346003 117.979998,103.263994 118.388,104.536 C118.916003,103.287994 119.701995,102.376003 120.746,101.8 C121.790006,101.223997 122.887995,100.936 124.04,100.936 C125.336007,100.936 126.391996,101.139998 127.208,101.548 C128.024005,101.956002 128.665998,102.489997 129.134,103.15 C129.602003,103.810003 129.926,104.571996 130.106,105.436 C130.286001,106.300004 130.376,107.187995 130.376,108.1 L130.376,118 L128.216,118 L128.216,108.208 C128.216,107.535997 128.156001,106.882003 128.036,106.246 C127.916,105.609997 127.706002,105.040003 127.406,104.536 C127.105999,104.031997 126.686003,103.630001 126.146,103.33 C125.605998,103.029999 124.904005,102.88 124.04,102.88 C123.031995,102.88 122.204004,103.065998 121.556,103.438 C120.907997,103.810002 120.398002,104.283997 120.026,104.86 C119.653999,105.436003 119.390001,106.059997 119.234,106.732 C119.078,107.404003 119,108.039997 119,108.64 L119,118 L116.84,118 L116.84,107.992 C116.84,106.455992 116.558003,105.220005 115.994,104.284 C115.429998,103.347995 114.560006,102.88 113.384,102.88 C112.591997,102.88 111.842004,103.017999 111.134,103.294 C110.425997,103.570001 109.814003,103.989997 109.298,104.554 C108.781998,105.118003 108.374002,105.825996 108.074,106.678 C107.773999,107.530004 107.624,108.531994 107.624,109.684 L107.624,118 L105.464,118 L105.464,106.048 Z M146.960001,111.016 C146.960001,111.832004 146.966001,112.563997 146.978001,113.212 C146.990001,113.860003 147.008,114.459997 147.032001,115.012 C147.056001,115.564003 147.086,116.079998 147.122001,116.56 C147.158001,117.040002 147.212,117.519998 147.284001,118 L145.268001,118 C145.124,117.183996 145.052001,116.284005 145.052001,115.3 L144.980001,115.3 C144.355997,116.380005 143.582005,117.171997 142.658001,117.676 C141.733996,118.180003 140.564008,118.432 139.148001,118.432 C138.427997,118.432 137.720004,118.342001 137.024001,118.162 C136.327997,117.981999 135.704003,117.694002 135.152001,117.298 C134.599998,116.901998 134.150002,116.392003 133.802001,115.768 C133.453999,115.143997 133.280001,114.388004 133.280001,113.5 C133.280001,112.227994 133.603997,111.220004 134.252001,110.476 C134.900004,109.731996 135.697996,109.174002 136.646001,108.802 C137.594005,108.429998 138.601995,108.190001 139.670001,108.082 C140.738006,107.973999 141.679996,107.92 142.496001,107.92 L145.016001,107.92 L145.016001,106.912 C145.016001,105.471993 144.572005,104.440003 143.684001,103.816 C142.795996,103.191997 141.680007,102.88 140.336001,102.88 C138.415991,102.88 136.724008,103.503994 135.260001,104.752 L134.000001,103.276 C134.792005,102.507996 135.775995,101.926002 136.952001,101.53 C138.128006,101.133998 139.255995,100.936 140.336001,100.936 C142.352011,100.936 143.959995,101.409995 145.160001,102.358 C146.360007,103.306005 146.960001,104.835989 146.960001,106.948 L146.960001,111.016 Z M142.640001,109.648 C141.727996,109.648 140.846005,109.707999 139.994001,109.828 C139.141996,109.948001 138.374004,110.151999 137.690001,110.44 C137.005997,110.728001 136.460003,111.111998 136.052001,111.592 C135.643999,112.072002 135.440001,112.671996 135.440001,113.392 C135.440001,113.896003 135.553999,114.345998 135.782001,114.742 C136.010002,115.138002 136.303999,115.461999 136.664001,115.714 C137.024002,115.966001 137.425998,116.157999 137.870001,116.29 C138.314003,116.422001 138.763998,116.488 139.220001,116.488 C140.372006,116.488 141.319997,116.320002 142.064001,115.984 C142.808004,115.647998 143.401998,115.210003 143.846001,114.67 C144.290003,114.129997 144.596,113.518003 144.764001,112.834 C144.932001,112.149997 145.016001,111.460003 145.016001,110.764 L145.016001,109.648 L142.640001,109.648 Z M150.620001,106.048 C150.620001,105.735998 150.608001,105.358002 150.584001,104.914 C150.560001,104.469998 150.542001,104.020002 150.530001,103.564 C150.518001,103.107998 150.500001,102.682002 150.476001,102.286 C150.452001,101.889998 150.440001,101.584001 150.440001,101.368 L152.600001,101.368 C152.624001,101.992003 152.642001,102.591997 152.654001,103.168 C152.666001,103.744003 152.696,104.115999 152.744001,104.284 C153.296003,103.299995 154.003996,102.496003 154.868001,101.872 C155.732005,101.247997 156.787994,100.936 158.036001,100.936 C158.252002,100.936 158.462,100.954 158.666001,100.99 C158.870002,101.026 159.08,101.068 159.296001,101.116 L159.044001,103.24 C158.755999,103.144 158.480002,103.096 158.216001,103.096 C157.279996,103.096 156.470004,103.245998 155.786001,103.546 C155.101997,103.846001 154.538003,104.259997 154.094001,104.788 C153.649998,105.316003 153.320002,105.933996 153.104001,106.642 C152.888,107.350004 152.780001,108.111996 152.780001,108.928 L152.780001,118 L150.620001,118 L150.620001,106.048 Z M160.508001,90.784 L162.668001,90.784 L162.668001,108.928 L170.876001,101.404 L174.044001,101.404 L165.476001,109 L175.052001,118 L171.776001,118 L162.668001,109.216 L162.668001,118 L160.508001,118 L160.508001,90.784 Z M190.412001,114.868 C189.571997,116.140006 188.534007,117.051997 187.298001,117.604 C186.061995,118.156003 184.700008,118.432 183.212001,118.432 C181.939994,118.432 180.788006,118.216002 179.756001,117.784 C178.723996,117.351998 177.836005,116.746004 177.092001,115.966 C176.347997,115.185996 175.778003,114.262005 175.382001,113.194 C174.985999,112.125995 174.788001,110.944006 174.788001,109.648 C174.788001,108.399994 174.991999,107.248005 175.400001,106.192 C175.808003,105.135995 176.383997,104.218004 177.128001,103.438 C177.872005,102.657996 178.747996,102.046002 179.756001,101.602 C180.764006,101.157998 181.879995,100.936 183.104001,100.936 C184.376007,100.936 185.497996,101.157998 186.470001,101.602 C187.442006,102.046002 188.257998,102.633996 188.918001,103.366 C189.578004,104.098004 190.075999,104.931995 190.412001,105.868 C190.748003,106.804005 190.916001,107.751995 190.916001,108.712 L190.916001,110.224 L176.948001,110.224 C176.948001,110.680002 177.038,111.261996 177.218001,111.97 C177.398002,112.678004 177.727998,113.367997 178.208001,114.04 C178.688003,114.712003 179.329997,115.287998 180.134001,115.768 C180.938005,116.248002 181.975994,116.488 183.248001,116.488 C184.352006,116.488 185.419996,116.224003 186.452001,115.696 C187.484006,115.167997 188.275998,114.448005 188.828001,113.536 L190.412001,114.868 Z M188.756001,108.28 C188.756001,107.535996 188.606002,106.840003 188.306001,106.192 C188.005999,105.543997 187.598003,104.974002 187.082001,104.482 C186.565998,103.989998 185.954004,103.600001 185.246001,103.312 C184.537997,103.023999 183.788005,102.88 182.996001,102.88 C181.819995,102.88 180.842005,103.119998 180.062001,103.6 C179.281997,104.080002 178.664003,104.631997 178.208001,105.256 C177.751999,105.880003 177.428002,106.485997 177.236001,107.074 C177.044,107.662003 176.948001,108.063999 176.948001,108.28 L188.756001,108.28 Z M193.640001,106.048 C193.640001,105.735998 193.628001,105.358002 193.604001,104.914 C193.580001,104.469998 193.562001,104.020002 193.550001,103.564 C193.538001,103.107998 193.520001,102.682002 193.496001,102.286 C193.472001,101.889998 193.460001,101.584001 193.460001,101.368 L195.620001,101.368 C195.644001,101.992003 195.662001,102.591997 195.674001,103.168 C195.686001,103.744003 195.716001,104.115999 195.764001,104.284 C196.316004,103.299995 197.023997,102.496003 197.888001,101.872 C198.752005,101.247997 199.807995,100.936 201.056001,100.936 C201.272002,100.936 201.482,100.954 201.686001,100.99 C201.890002,101.026 202.1,101.068 202.316001,101.116 L202.064001,103.24 C201.776,103.144 201.500002,103.096 201.236001,103.096 C200.299996,103.096 199.490004,103.245998 198.806001,103.546 C198.121998,103.846001 197.558003,104.259997 197.114001,104.788 C196.669999,105.316003 196.340002,105.933996 196.124001,106.642 C195.908,107.350004 195.800001,108.111996 195.800001,108.928 L195.800001,118 L193.640001,118 L193.640001,106.048 Z" id="Made-By--" sketch:type="MSShapeGroup"></path>
        </g>
    </g>
</svg>