<?xml version="1.0" encoding="UTF-8" standalone="no"?>
<svg width="571px" height="408px" viewBox="0 0 571 408" version="1.1" xmlns="http://www.w3.org/2000/svg" xmlns:xlink="http://www.w3.org/1999/xlink" xmlns:sketch="http://www.bohemiancoding.com/sketch/ns">
    <!-- Generator: Sketch 3.3.3 (12072) - http://www.bohemiancoding.com/sketch -->
    <title>Artboard 1</title>
    <desc>Created with Sketch.</desc>
    <defs></defs>
    <g id="Page-1" stroke="none" stroke-width="1" fill="none" fill-rule="evenodd" sketch:type="MSPage">
        <g id="Artboard-1" sketch:type="MSArtboardGroup">
            <rect id="Rectangle-50" fill="#4C4C4C" sketch:type="MSShapeGroup" x="0" y="0" width="571" height="408"></rect>
            <path d="M95,49 C95.3778698,46.3549115 96,44 96,44 L100,47 L97,62 L94,64 C94,64 94.3778698,53.3549115 95,49 Z" id="Rectangle-33-Copy-2" fill="#181615" sketch:type="MSShapeGroup" transform="translate(97.000000, 54.000000) scale(-1, -1) translate(-97.000000, -54.000000) "></path>
            <path d="M60,58 C60.1566904,55.5194071 60.7693621,52.6144657 61,51 C61.3778698,48.3549115 63,45 63,45 L66,49 C66,49 63.5274439,54.3627804 63,57 C62.5274439,59.3627804 63,64 63,64 L59,63 C59,63 59.7340288,62.2106378 60,58 Z" id="Rectangle-33-Copy-3" fill="#181615" sketch:type="MSShapeGroup" transform="translate(62.500000, 54.500000) scale(1, -1) translate(-62.500000, -54.500000) "></path>
            <path d="M64,48.5092878 C63.2886135,46.7308216 63,43 63,43 L81,43 C81,43 81.3752206,46.8207952 81,48.5092878 C80.7085539,49.8207952 79,52 79,52 C79,52 74.8469612,53.8460866 73,54 C70.8469612,54.1794199 67,53 67,53 C67,53 64.6219468,50.0641549 64,48.5092878 Z" id="Rectangle-39" fill="#000000" sketch:type="MSShapeGroup"></path>
            <path d="M82,48.5092878 C81.2886135,46.7308216 81,43 81,43 L99,43 C99,43 99.3752206,46.8207952 99,48.5092878 C98.7085539,49.8207952 97,52 97,52 C97,52 92.8469612,53.8460866 91,54 C88.8469612,54.1794199 85,53 85,53 C85,53 82.6219468,50.0641549 82,48.5092878 Z" id="Rectangle-39-Copy" fill="#000000" sketch:type="MSShapeGroup" transform="translate(90.083382, 48.509288) scale(-1, 1) translate(-90.083382, -48.509288) "></path>
            <path d="M60,32 C60.3778698,29.3549115 62,26 62,26 L65,30 L62,45 L59,47 C59,47 59.3778698,36.3549115 60,32 Z" id="Rectangle-33" fill="#181615" sketch:type="MSShapeGroup"></path>
            <path d="M60.6716061,41.6177716 L62.6716061,41.6177716 L62.671606,49.0415325 L59.7877264,47.1576528 L60.6716061,41.6177716 Z" id="Rectangle-41" fill="#000000" sketch:type="MSShapeGroup" transform="translate(61.229666, 45.329652) rotate(35.000000) translate(-61.229666, -45.329652) "></path>
            <path d="M95,39 C95.1566904,36.5194071 95.7693621,33.6144657 96,32 C96.3778698,29.3549115 98,26 98,26 L101,30 C101,30 98.5274439,35.3627804 98,38 C97.5274439,40.3627804 98,45 98,45 L94,44 C94,44 94.7340288,43.2106378 95,39 Z" id="Rectangle-33-Copy" fill="#181615" sketch:type="MSShapeGroup" transform="translate(97.500000, 35.500000) scale(-1, 1) translate(-97.500000, -35.500000) "></path>
            <path d="M97.4662619,42.3131139 L102.119133,42.3131139 L97.4662619,46.1968045 L95.237916,45.132077 L97.4662619,42.3131139 Z" id="Rectangle-41-Copy" fill="#000000" sketch:type="MSShapeGroup" transform="translate(98.678524, 44.254959) scale(-1, 1) rotate(35.000000) translate(-98.678524, -44.254959) "></path>
            <rect id="Rectangle-38" fill="#000000" sketch:type="MSShapeGroup" x="62" y="42" width="36" height="2"></rect>
            <path d="M85.0099719,7.0914794 C87.782193,5.93638729 90.8007626,7.31372078 91.7490964,10.158722 L92.3099485,11.8412781 C93.2596431,14.6903615 91.6088015,17.2420719 88.6197751,17.5409745 L89.4392698,17.459025 C86.4515487,17.757797 82.5694295,16.0532094 80.7661521,13.6488397 L81.2928924,14.35116 C79.4905828,11.9480807 80.2866304,9.05953832 83.0490726,7.90852078 L85.0099719,7.0914794 Z" id="Rectangle-37" fill="#191716" sketch:type="MSShapeGroup" transform="translate(86.452704, 12.111836) scale(-1, 1) translate(-86.452704, -12.111836) "></path>
            <path d="M63,29 C62.4201562,28.226875 62,26 62,26 C62,26 65.511781,21.1771916 68,19 C70.8451143,16.510525 79,14 79,14 L80,25 C80,25 74.4557813,25.1814063 72,26 C69.4557813,26.8480729 65,30 65,30 C65,30 63.4201562,29.5602083 63,29 Z" id="Rectangle-34" fill="#191716" sketch:type="MSShapeGroup"></path>
            <path d="M85,77 C85,77 89.1548857,73.489475 92,71 C94.488219,68.8228084 98,64 98,64 C98,64 97.5798438,61.773125 97,61 C96.5798438,60.4397917 95,60 95,60 C95,60 90.5442187,63.1519271 88,64 C86.1940558,64.6019814 82.7179128,64.8593777 81.0046868,64.9534481 L81,64.9393166 C81,64.9393166 75.4557813,64.7579104 73,63.9393166 C70.4557813,63.0912437 66,59.9393166 66,59.9393166 C66,59.9393166 64.4201563,60.3791083 64,60.9393166 C63.4201562,61.7124416 63,63.9393166 63,63.9393166 C63,63.9393166 63.2228936,65.8658301 65,67.9393166 C65.8893625,68.9770041 67.1700902,71.2131455 68,71.9393166 C69.4285385,73.1892878 72.0965115,75.557777 75,77 C77.8791737,78.4301453 84.999997,77.0000006 85,77 Z" id="Rectangle-34-Copy-3" fill="#191716" sketch:type="MSShapeGroup"></path>
            <path d="M80,29 C79.4201563,28.226875 79,26 79,26 C79,26 79.2228936,24.0734865 81,22 C81.8893625,20.9623125 83.1700902,18.7261711 84,18 C85.4285385,16.7500288 87.0965115,16.442223 90,15 C92.8791743,13.5698544 97,14 97,14 L97,25 C97,25 91.4557813,25.1814063 89,26 C86.4557813,26.8480729 82,30 82,30 C82,30 80.4201563,29.5602083 80,29 Z" id="Rectangle-34-Copy" fill="#191716" sketch:type="MSShapeGroup" transform="translate(88.000000, 21.969658) scale(-1, 1) translate(-88.000000, -21.969658) "></path>
            <path d="M133,374 C131.485348,363.094505 126,336 126,336 L168,334 L168,374 L168,408 L136,408 C136,408 134.818681,387.094505 133,374 Z" id="Rectangle-32" fill="#203041" sketch:type="MSShapeGroup"></path>
            <path d="M118,320 C111.644162,307.373756 98.205919,288.317202 95,279 C91.6287981,269.202445 95,252 95,252 L140,247 C140,247 149.248454,265.35229 151.999998,274 C158.581788,294.685624 168.000002,334 168.000002,334 L132.999998,350 C132.999998,350 126.107657,336.106334 118,320 Z" id="Rectangle-31" fill="#203041" sketch:type="MSShapeGroup"></path>
            <path d="M61,370 C59.3568176,360.825565 57,341 57,341 L88,341 C88,341 89.9446045,361.898357 91,372 C92.2779378,384.231691 95,408 95,408 L69,408 C69,408 63.3568176,383.158898 61,370 Z" id="Rectangle-30" fill="#203041" sketch:type="MSShapeGroup"></path>
            <path d="M52,299 C49.2077169,283.888821 40,250 40,250 L95,246 C95,246 96.4154279,261.160475 95,276 C94.1664768,284.738763 90.4404243,292.959895 90,299 C89.4894957,306.001202 89.0366434,315.307076 88.6915141,323.470827 C88.2625511,333.617596 88,342 88,342 L57,342 C57,342 54.8743835,314.555487 52,299 Z" id="Rectangle-29" fill="#203041" sketch:type="MSShapeGroup"></path>
            <path d="M72,84 C72,84 79.6360677,85 83.5,85 C87.3027344,85 95,84 95,84 L95,102 C95,102 92.6262097,104.884724 90,105 C89.2369477,105.033494 88.8476607,101.866829 88,102 C85.9731633,102.318424 83.3250445,104 82,104 C78.1197917,104 72,102 72,102 L72,84 Z" id="Rectangle-28" fill="#939393" sketch:type="MSShapeGroup"></path>
            <path d="M65,91 L77,91 C77,91 78,95.2955729 78,99 C78,102.96224 76,111 76,111 L71.5,119 L65,91 Z" id="Rectangle-27" fill="#939393" sketch:type="MSShapeGroup"></path>
            <path d="M100,129 C100.178739,126.497654 100,119 100,119 L105,119 L105,133 L99,133 C99,133 99.8454057,131.16432 100,129 Z" id="Rectangle-26" fill="#939393" sketch:type="MSShapeGroup"></path>
            <path d="M88,136 C88,136 92.7828214,135.043378 95,134 C98.449488,132.376712 105,128 105,128 L110,146 L87,172 L88,136 Z" id="Rectangle-25" fill="#939393" sketch:type="MSShapeGroup"></path>
            <path d="M77,194 C77.2832381,188.547667 79,177 79,177 L107,141 C107,141 114.166865,168.658454 117,186 C117.973409,191.958212 122,201.354564 122,204 C122,204.899755 121.657345,198.17827 122,199 C123.571844,202.769484 126.473924,210.963005 126,215 C123.516618,236.154022 107,252 107,252 C107,252 94.9440054,254.6285 89,255 C84.2773387,255.295166 75,254 75,254 C75,254 75.9499047,214.214334 77,194 Z" id="Rectangle-24" fill="#939393" sketch:type="MSShapeGroup"></path>
            <path d="M110.449106,248.114697 C110.449106,246 110.449106,247 110.449106,247 C110.449106,247 116.718572,247.171127 119.5,246 C121.144197,245.307707 123.386751,242.466717 125,241 C126.871801,239.298216 128,239 128,239 L130,249 L122,257 C122,257 110.449106,250.229394 110.449106,248.114697 Z" id="Rectangle-22" fill="#252424" sketch:type="MSShapeGroup"></path>
            <path d="M121,221.5207 C122.159133,218.496876 124.5,209 124.5,209 L136,204 L132,228 C132,228 131.409777,227.025919 128,229 C126.660061,229.775754 123.141396,234.881862 120,237 C116.287317,239.503337 113,239 113,239 C113,239 118.325799,228.496876 121,221.5207 Z" id="Rectangle-21" fill="#252424" sketch:type="MSShapeGroup"></path>
            <path d="M72,165 C72.6140625,162.646094 75,158 75,158 L75,159 L69,253 L51,250 C51,250 64.6140625,193.31276 72,165 Z" id="Rectangle-20" fill="#939393" sketch:type="MSShapeGroup"></path>
            <path d="M72,195.836733 C72.2551036,190.989764 74.4242726,168.20111 75,161.509434 C76.5321828,143.700881 77,140 77,140 L80,140 C80,140 79.8862483,156.515832 79,173 C78.5518713,181.335169 77.2642152,189.812625 77,195.836733 C76.1200777,215.898961 75,254 75,254 L69,254 C69,254 70.9340107,216.090529 72,195.836733 Z" id="Rectangle-19" fill="#D8D8D8" sketch:type="MSShapeGroup"></path>
            <circle id="Oval-1" fill="#000000" sketch:type="MSShapeGroup" cx="74.5" cy="197.5" r="1.5"></circle>
            <circle id="Oval-1-Copy" fill="#000000" sketch:type="MSShapeGroup" cx="73.5" cy="221.5" r="1.5"></circle>
            <circle id="Oval-1-Copy-2" fill="#000000" sketch:type="MSShapeGroup" cx="76.5" cy="173.5" r="1.5"></circle>
            <circle id="Oval-1-Copy-3" fill="#000000" sketch:type="MSShapeGroup" cx="80.5" cy="88.5" r="1.5"></circle>
            <path d="M38,204 C38.4996697,196.604888 36,176 36,176 L76,143 C76,143 76.9106435,149.231644 76,154 C75.1117789,158.650947 72.4200886,163.747682 71,171 C68.1788443,185.407495 64.6306597,203.087634 62,214 C58.3124847,229.29636 49,257 49,257 L31,250 C31,250 36.8330031,221.271554 38,204 Z" id="Rectangle-16" fill="#252424" sketch:type="MSShapeGroup"></path>
            <path d="M21,178 C19.9652055,177.126318 19.5574512,174.929085 19,174 C18.169348,172.61558 16.4946342,170.507551 16,168 C15.3426078,164.667347 16,161 16,161 C16,161 21.2303279,155.784197 30,149 C37.5034444,143.195353 48.1695113,136.070342 54.000001,132 C56.7447675,130.083842 60.7324334,127.611511 64.000001,126 C66.7107164,124.663119 69.000001,123 69.000001,123 C69.000001,123 68.4286831,130.486201 69.000001,133 C69.4924335,135.166703 70.3145449,138.190904 72.000001,140 C74.0636116,142.21499 77.000001,143 77.000001,143 C77.000001,143 63.5265646,156.163073 56.000001,162 C47.1932309,168.82974 28,181 28,181 C28,181 23.7991479,180.363333 21,178 Z" id="Rectangle-12" fill="#2C2C2C" sketch:type="MSShapeGroup"></path>
            <path d="M41,112 C37.8678983,105.437501 28,92 28,92 L59,80 C59,80 70.8649171,101.744676 74,114 C74.5315838,116.078009 70,123 70,123 C70,123 63.2977235,125.958552 60,128 C56.2977235,130.291885 49,136 49,136 C49,136 44.8678983,120.104168 41,112 Z" id="Rectangle-11" fill="#252424" sketch:type="MSShapeGroup"></path>
            <path d="M95,97 C98.1997852,91.1650977 101,79 101,79 L113,83 L101,106 C101,106 97.5583099,105.398045 95,106 C91.8916432,106.731378 84,110 84,110 C84,110 92.5331185,101.498431 95,97 Z" id="Rectangle-10" fill="#000000" sketch:type="MSShapeGroup"></path>
            <path d="M58,93 C58.7242685,91.6963167 59,88 59,88 L67,94 L74,114 C74,114 65.2930708,111.79911 62,109 C58.6264041,106.132444 52,95 52,95 C52,95 57.0576018,94.6963167 58,93 Z" id="Rectangle-9" fill="#000000" sketch:type="MSShapeGroup"></path>
            <path d="M60,90 C57.2341253,88.962797 51,88 51,88 C51,88 53.5356526,83.3000575 56,81 C58.5356526,78.6333909 66,74 66,74 L67,94 C67,94 62.5674586,90.962797 60,90 Z" id="Rectangle-8" fill="#000000" sketch:type="MSShapeGroup"></path>
            <path d="M77,140 L88,137 L95,215 C95,215 91.8597637,221.856941 90,222 C87.5264304,222.190275 82,216 82,216 L77,140 Z" id="Rectangle-7" fill="#000000" sketch:type="MSShapeGroup"></path>
            <path d="M78,96 L82,95 L82,105 L76,111 L78,96 Z" id="Rectangle-6" fill="#000000" sketch:type="MSShapeGroup"></path>
            <path d="M78,91 L82,91 L84,96 L76,96 L78,91 Z" id="Rectangle-5" fill="#000000" sketch:type="MSShapeGroup"></path>
            <path d="M82,91 L87,87 L92,91 L83,95 L82,91 Z" id="Rectangle-4" fill="#000000" sketch:type="MSShapeGroup"></path>
            <path d="M73,88 L78,91.5 L77,95 L71,90.5 L73,88 Z" id="Rectangle-3" fill="#000000" sketch:type="MSShapeGroup"></path>
            <path d="M91,90 C89.2616828,88.4355145 85,86 85,86 C85,86 90.6317644,82.3636631 92.5783105,80 C95.298431,76.6969965 99,69 99,69 L99,70 C99,70 100.664402,78.8474892 100,83 C99.3310684,87.1808225 95,95 95,95 C95,95 92.5950161,91.4355145 91,90 Z" id="Rectangle-2" fill="#FFFFFF" sketch:type="MSShapeGroup"></path>
            <path d="M65,83 C64.6110838,78.5274641 65,70 65,70 L80,85 C80,85 75.9321031,86.8110135 74,88 C71.5987697,89.4776802 67,93 67,93 C67,93 65.2777505,86.1941307 65,83 Z" id="Rectangle-1" fill="#FFFFFF" sketch:type="MSShapeGroup"></path>
            <path d="M24,128 C26.4000645,116.171111 28,92 28,92 C28,92 35.3914407,101.384857 38,106 C39.724774,109.051523 43,116 43,116 C43,116 45.0122921,121.70764 46,125 C46.5020453,126.673484 48.6275364,129.931927 49,132 C49.3785483,134.101858 49,136 49,136 L16,161 C16,161 21.7333978,139.171111 24,128 Z" id="Rectangle-13" fill="#000000" sketch:type="MSShapeGroup"></path>
            <path d="M101,105 C100.500891,99.3578977 113,83 113,83 L136,88 C136,88 134.207786,113.429003 134.000001,126 C133.826086,136.521814 132.628407,151.266333 133.000001,165 C133.608876,187.503306 135.999999,208 135.999999,208 L124.5,213 C124.5,213 104.334224,142.691231 101,105 Z" id="Rectangle-14" fill="#252424" sketch:type="MSShapeGroup"></path>
            <path d="M132,228 L147,235 L146,238 L132,229 L132,228 Z" id="Rectangle-15" fill="#D8D8D8" sketch:type="MSShapeGroup"></path>
            <path d="M71.3340041,134.097379 C74.0126061,135.347393 80.5095769,136.078339 80.5095769,136.078339 C80.5095769,136.078339 82.0623031,138.653341 81.9206373,139.078339 C81.7289698,139.653341 79.5095769,139.078339 79.5095769,139.078339 C79.5095769,139.078339 74.0641176,139.473432 71.3340041,137.718359 C69.3974509,136.473432 63.6927955,127.201138 63.6927955,127.201138 C63.6927955,127.201138 69.0126061,133.01406 71.3340041,134.097379 Z" id="Rectangle-15-Copy" fill="#D8D8D8" sketch:type="MSShapeGroup" transform="translate(72.811284, 133.267517) rotate(36.000000) translate(-72.811284, -133.267517) "></path>
            <path d="M137,197 C137.141013,193.756696 132.939007,179.812151 133,176 C133.125994,168.125103 132.860434,159.363631 133,151 C133.145072,142.30643 133.698405,134.013103 134,126 C134.204857,120.557149 133.764608,115.613744 134,111 C134.661279,98.0387963 136,89 136,89 C136,89 140.530154,97.8307501 144,109 C146.281009,116.342449 147.368375,125.493266 149,131 C152.886366,144.116484 160,170 160,170 C160,170 160.700931,196.773855 159,208 C157.367598,218.773855 150,236 150,236 L130,227 C130,227 136.518534,208.073722 137,197 Z" id="Rectangle-17" fill="#2C2C2C" sketch:type="MSShapeGroup"></path>
            <path d="M113,239 L121,235 C121,235 117.799012,239.137515 116,242 C115.161036,243.334913 115.358836,243.722522 115,244.5 C114.706739,245.135398 115.298612,246.027558 115,247 C114.411003,248.918095 113,251 113,251 L107,251 L113,239 Z" id="Rectangle-23" fill="#252424" sketch:type="MSShapeGroup"></path>
            <path d="M68,62 C68,62 77.4270833,58 82,58 C85.4270833,58 92,62 92,62 L91,64 C91,64 84.3332464,61.158726 81,61 C77.3332464,60.8253927 70,63 70,63 L68,62 Z" id="Rectangle-47" fill="#191716" sketch:type="MSShapeGroup"></path>
            <path d="M67,40 C67,40 71.3207465,38 73.4166667,38 C74.9874132,38 78,40 78,40 L77.5416667,41 C77.5416667,41 74.4860713,39.579363 72.9583333,39.5 C71.2777379,39.4126963 67.9166667,40.5 67.9166667,40.5 L67,40 Z" id="Rectangle-47-Copy" fill="#191716" sketch:type="MSShapeGroup"></path>
            <path d="M85,40 C85,40 89.3207465,38 91.4166667,38 C92.9874132,38 96,40 96,40 L95.5416667,41 C95.5416667,41 92.4860713,39.579363 90.9583333,39.5 C89.2777379,39.4126963 85.9166667,40.5 85.9166667,40.5 L85,40 Z" id="Rectangle-47-Copy-2" fill="#191716" sketch:type="MSShapeGroup" transform="translate(90.500000, 39.500000) scale(-1, 1) translate(-90.500000, -39.500000) "></path>
        </g>
    </g>
</svg>